<?xml version="1.0" encoding="UTF-8"?>
<svg version="1.1" xmlns="http://www.w3.org/2000/svg" width="600" height="200">
<path d="M0 0 C198 0 396 0 600 0 C600 66 600 132 600 200 C402 200 204 200 0 200 C0 134 0 68 0 0 Z " fill="#282994" transform="translate(0,0)"/>
<path d="M0 0 C50.16 0 100.32 0 152 0 C152 66 152 132 152 200 C86.66 200 21.32 200 -46 200 C-39.25 192.125 -39.25 192.125 -36.7890625 189.69140625 C-36.26699219 189.17255859 -35.74492187 188.65371094 -35.20703125 188.11914062 C-34.68496094 187.60544922 -34.16289062 187.09175781 -33.625 186.5625 C-33.07972656 186.02173828 -32.53445313 185.48097656 -31.97265625 184.92382812 C-30.65076536 183.61353277 -29.32572382 182.30641716 -28 181 C-30.56428515 180.86440325 -33.12135216 180.76566812 -35.6875 180.6875 C-36.40873047 180.64560547 -37.12996094 180.60371094 -37.87304688 180.56054688 C-42.16388405 180.46258256 -43.50979583 180.57330406 -46.89453125 183.51953125 C-47.58933594 184.33808594 -48.28414063 185.15664062 -49 186 C-49.66 186 -50.32 186 -51 186 C-48.63646168 170.11482384 -44.27794263 154.41185882 -39.67944336 139.05004883 C-37.4710812 131.66926289 -35.41864953 124.25738239 -33.4375 116.8125 C-31.19585711 108.40603141 -28.89475682 100.02338197 -26.47583008 91.66625977 C-24.83561825 85.97895151 -23.24647855 80.27923775 -21.68359375 74.5703125 C-13.56175734 44.94476421 -13.56175734 44.94476421 -8.86376953 30.99316406 C-5.45307136 20.74781309 -2.86110116 10.49070427 0 0 Z " fill="#000080" transform="translate(448,0)"/>
<path d="M0 0 C12.36134842 1.12375895 12.36134842 1.12375895 16.6015625 2.1640625 C17.56884277 2.39536865 18.53612305 2.6266748 19.53271484 2.86499023 C21.063396 3.24119507 21.063396 3.24119507 22.625 3.625 C32.14890846 5.89956279 41.69073544 8.01288654 51.27719116 10.00143433 C72.78042428 14.47125144 94.15898613 19.46542688 115.11230469 26.08984375 C117.88065804 26.96238529 120.65345156 27.81981341 123.42694092 28.67585754 C160.80574718 40.24555748 200.80638947 54.79951221 221.06103516 90.890625 C230.99361127 109.86395244 234.57836793 129.79317593 234 151 C239.94 151 245.88 151 252 151 C250.73207132 152.55774095 249.44280389 154.09948781 248.10135937 155.59438801 C246.97924984 156.87896607 245.86765007 158.17629323 244.84361136 159.54033697 C240.35131469 165.52366309 235.76076084 170.86049137 228.09335899 172.18229103 C222.11024632 172.76434078 216.13707304 172.61067924 210.13549805 172.47583008 C207.83804535 172.47215799 205.54057742 172.47423147 203.24313354 172.48158264 C197.03820143 172.48529682 190.8365687 172.40913743 184.63240027 172.31812119 C178.13700804 172.23658239 171.64153125 172.22919656 165.14570618 172.21379089 C154.25352504 172.17803923 143.36255553 172.09696856 132.47094727 171.98071289 C121.25876735 171.86116084 110.04691691 171.76940264 98.83422852 171.71411133 C97.78483716 171.70888538 97.78483716 171.70888538 96.71424598 171.70355386 C90.62761321 171.67348189 84.54097117 171.64549784 78.45432758 171.6177187 C52.30175314 171.49565882 26.1523699 171.23662727 0 171 C0 114.57 0 58.14 0 0 Z " fill="#282A95" transform="translate(0,29)"/>
<path d="M0 0 C11.34677107 -0.16000684 22.6927576 -0.28761761 34.04041481 -0.3626852 C39.31318669 -0.39876688 44.58512795 -0.44745879 49.85742188 -0.52807617 C74.69019555 -0.89769207 97.1037176 -0.28401632 121 7 C123.04999286 7.57717302 125.10155374 8.1488113 127.15478516 8.71435547 C130.85623577 9.74194245 134.54377308 10.79742042 138.21484375 11.9296875 C142.75095847 13.31950556 147.29415101 14.68163979 151.84388733 16.02593994 C211.23025456 33.60447176 211.23025456 33.60447176 233 53 C233.83015625 53.73605469 234.6603125 54.47210938 235.515625 55.23046875 C255.28923694 73.82130328 262.77576151 100.48643696 264 127 C264.14469962 133.14349604 264.14399025 139.28751456 264.13037109 145.43237305 C264.12503177 148.29546452 264.13033067 151.15839779 264.13671875 154.02148438 C264.15295956 186.59312993 264.15295956 186.59312993 255.03198242 196.30981445 C250.63773553 200.3943595 246.68318153 200.87569038 240.8125 200.6875 C238.18594708 200.54322028 235.61536435 200.3035417 233 200 C238.5596859 193.20482835 244.76107337 187.16960522 251 181 C242.585 180.505 242.585 180.505 234 180 C233.90203125 178.54851562 233.8040625 177.09703125 233.703125 175.6015625 C231.350471 143.49604236 223.0946467 115.43755043 197.99609375 93.40234375 C166.72814073 68.33090815 125.79322275 58.52064514 87.81591797 48.72705078 C85.86369904 48.22300119 83.91225144 47.71595831 81.96142578 47.20654297 C66.29791946 43.12673488 50.59332244 39.55589401 34.72241211 36.39697266 C27.81053926 35.01756379 20.94779284 33.56523843 14.13671875 31.73730469 C9.46429768 30.63902389 4.72234387 29.85860798 0 29 C0 19.43 0 9.86 0 0 Z " fill="#000080" transform="translate(0,0)"/>
<path d="M0 0 C14.19 0 28.38 0 43 0 C43 66 43 132 43 200 C16.6 200 -9.8 200 -37 200 C-30.77269656 192.73481266 -30.77269656 192.73481266 -27.16796875 190.15234375 C-23.05722953 186.06420964 -23.26405213 181.37683665 -23.21989441 175.91868591 C-23.22923951 174.31063352 -23.24779931 172.70261383 -23.27456665 171.09475708 C-23.34027438 166.70840932 -23.27563679 162.32370059 -23.21875 157.9375 C-23.20886551 157.03016617 -23.19898102 156.12283234 -23.188797 155.18800354 C-22.54915591 111.53449435 -13.46980497 67.66765247 -5 25 C-4.71878325 23.57766232 -4.43769035 22.15530014 -4.15673828 20.73291016 C-2.78938422 13.81810963 -1.39919448 6.90852276 0 0 Z " fill="#282994" transform="translate(557,0)"/>
<path d="M0 0 C12.36134842 1.12375895 12.36134842 1.12375895 16.6015625 2.1640625 C17.56884277 2.39536865 18.53612305 2.6266748 19.53271484 2.86499023 C21.063396 3.24119507 21.063396 3.24119507 22.625 3.625 C32.14890846 5.89956279 41.69073544 8.01288654 51.27719116 10.00143433 C72.78042428 14.47125144 94.15898613 19.46542688 115.11230469 26.08984375 C117.88065804 26.96238529 120.65345156 27.81981341 123.42694092 28.67585754 C160.80574718 40.24555748 200.80638947 54.79951221 221.06103516 90.890625 C230.99361127 109.86395244 234.57836793 129.79317593 234 151 C239.94 151 245.88 151 252 151 C250.73065083 152.55948612 249.43767138 154.10138211 248.08789062 155.59179688 C245.87401575 158.06575578 245.87401575 158.06575578 243.70898438 161.23632812 C240.01294379 166.04659466 236.27999426 170.18741813 230.21640015 171.68960571 C222.384253 172.62854344 214.54514565 172.18564204 206.6875 171.8125 C204.28987105 171.74719115 201.89207042 171.68789312 199.49414062 171.63476562 C193.6589731 171.49250852 187.83029792 171.27588707 182 171 C182.93590504 169.8944811 183.87379858 168.79064547 184.8125 167.6875 C185.33457031 167.07261719 185.85664063 166.45773438 186.39453125 165.82421875 C188 164 188 164 189.68359375 162.41943359 C191.239844 161.02622854 191.239844 161.02622854 191.25 158.6015625 C188.83061929 129.7958109 178.18371085 103.1451308 156 84 C139.44656375 70.71397405 119.84993563 62.91259739 100 56 C98.92153809 55.61956543 97.84307617 55.23913086 96.73193359 54.84716797 C81.07256009 49.34896743 65.3082533 44.79470272 49.203125 40.80419922 C46.1278987 40.03211115 43.06304834 39.22909626 40 38.41015625 C26.73898559 34.86488968 13.432238 31.83662169 0 29 C0 19.43 0 9.86 0 0 Z " fill="#282994" transform="translate(0,29)"/>
<path d="M0 0 C7.0513985 3.94878316 10.44835112 9.33116132 13.75 16.4375 C14.06582031 17.08009766 14.38164062 17.72269531 14.70703125 18.38476562 C16.76678597 22.77623402 17 24.90065725 17 30 C3.8 30 -9.4 30 -23 30 C-23 30.66 -23 31.32 -23 32 C-9.47 32 4.06 32 18 32 C20.18872402 38.56617205 21.20786957 43.82801203 21.53515625 50.703125 C21.59962196 51.95980988 21.59962196 51.95980988 21.66539001 53.24188232 C21.80146415 55.91108274 21.93205291 58.58051925 22.0625 61.25 C22.15393507 63.06251829 22.24572778 64.87501857 22.33789062 66.6875 C22.56274025 71.12480196 22.78267153 75.56232357 23 80 C23.99 78.515 23.99 78.515 25 77 C27.625 76.8125 27.625 76.8125 30 77 C30.62867668 78.37332284 31.25273891 79.74875833 31.875 81.125 C32.22304688 81.89070313 32.57109375 82.65640625 32.9296875 83.4453125 C33.28289062 84.28835937 33.63609375 85.13140625 34 86 C34.34804688 86.81855469 34.69609375 87.63710937 35.0546875 88.48046875 C36.35378025 93.31717359 36.24692067 97.88213994 36.1953125 102.8671875 C36.1924826 103.90191193 36.18965271 104.93663635 36.18673706 106.00271606 C36.17558048 109.29359714 36.15048397 112.58420178 36.125 115.875 C36.11496437 118.11197522 36.10583953 120.34895473 36.09765625 122.5859375 C36.0756559 128.05739748 36.041157 133.52865194 36 139 C29.73 139 23.46 139 17 139 C16.67 139.99 16.34 140.98 16 142 C14.68 140.35 13.36 138.7 12 137 C15.39065638 143.6294767 19.26469742 147.07338014 25.625 150.8125 C27.13996509 151.73248302 28.65306278 152.65554984 30.1640625 153.58203125 C30.82873535 153.97624268 31.4934082 154.3704541 32.17822266 154.77661133 C34.02940622 156.01974733 35.48099313 157.37417417 37 159 C37.33 158.67 37.66 158.34 38 158 C39.85287502 157.92773498 41.70833878 157.9161878 43.5625 157.9375 C44.57441406 157.94652344 45.58632813 157.95554688 46.62890625 157.96484375 C47.80259766 157.98224609 47.80259766 157.98224609 49 158 C48.57847656 158.43570313 48.15695312 158.87140625 47.72265625 159.3203125 C44.23634805 163.11013459 42.26119037 165.64559734 42 171 C40.948125 171.226875 39.89625 171.45375 38.8125 171.6875 C35.75015149 172.34800654 34.97422488 173.03083007 32.89118958 175.52238464 C29.19306921 178.69150225 26.36793434 178.67645925 21.72143555 178.56762695 C20.49139046 178.56872215 20.49139046 178.56872215 19.23649597 178.56983948 C16.53588874 178.56636615 13.83702327 178.52751879 11.13671875 178.48828125 C9.26057375 178.47895218 7.38441655 178.47183651 5.508255 178.46684265 C0.5776488 178.44778024 -4.35221732 178.39868592 -9.28253174 178.34332275 C-14.31650786 178.29211396 -19.35060394 178.26932512 -24.38476562 178.24414062 C-34.25683503 178.19056649 -44.1283559 178.10526278 -54 178 C-53.57843124 177.52473373 -53.15686249 177.04946747 -52.72251892 176.55979919 C-52.17463211 175.93348099 -51.6267453 175.30716278 -51.06225586 174.66186523 C-50.5169371 174.04222397 -49.97161835 173.4225827 -49.40977478 172.78416443 C-47.69142469 170.60947727 -47.07245076 168.774716 -46.5625 166.0625 C-44.47108753 158.14157575 -39.57322626 153.74449519 -32.6875 149.625 C-31.42486328 148.93277344 -31.42486328 148.93277344 -30.13671875 148.2265625 C-27.88152172 147.05566814 -27.88152172 147.05566814 -26 145 C-25.505 142.03 -25.505 142.03 -25 139 C-31.27 139 -37.54 139 -44 139 C-44.12484887 132.70531205 -44.21492271 126.41136588 -44.2746582 120.11572266 C-44.29959488 117.98017805 -44.333557 115.84471693 -44.37719727 113.70947266 C-44.84785806 90.06568901 -44.84785806 90.06568901 -39 79 C-37 77 -37 77 -34.5 76.6875 C-33.675 76.790625 -32.85 76.89375 -32 77 C-31.34 77.99 -30.68 78.98 -30 80 C-30.00112793 79.04971924 -30.00225586 78.09943848 -30.00341797 77.12036133 C-29.97658393 58.66704606 -29.80857341 41.41970104 -23 24 C-22.74524902 23.31164062 -22.49049805 22.62328125 -22.22802734 21.9140625 C-19.10476571 13.5255244 -15.52098214 5.72981027 -8.5 -0.0625 C-5.1548897 -1.31691636 -3.4091354 -1.04361288 0 0 Z " fill="#706AE7" transform="translate(473,22)"/>
<path d="M0 0 C19.44598751 -0.18737725 38.89179031 -0.32819664 58.33849525 -0.41449738 C67.36920077 -0.45564424 76.39934342 -0.51168166 85.4296875 -0.60351562 C93.30605736 -0.68357567 101.18201935 -0.73494146 109.05878484 -0.75270796 C113.22476893 -0.76308404 117.38958682 -0.78724338 121.55519485 -0.84584045 C125.48718295 -0.90069598 129.41754005 -0.91678399 133.3498745 -0.90486145 C134.78248568 -0.90703806 136.21515918 -0.92262382 137.64743614 -0.9536438 C152.99891571 -1.26943177 163.87381402 5.77899525 175 16 C194.97703893 35.44959236 200.51672884 63.02013748 201 90 C201.02046387 90.94375488 201.04092773 91.88750977 201.06201172 92.85986328 C201.47045487 114.59511508 200.56843591 136.46874163 197.5 158.01171875 C197.09248202 160.88371603 196.93788537 163.682653 196.875 166.58203125 C196.28230943 178.75709097 191.42225682 185.71927061 182.77246094 194.16870117 C177.39290605 198.89029199 173.08370734 201.55076942 165.8125 201.1875 C163.45931137 200.94163625 161.31049457 200.54495803 159 200 C161.82826005 196.62746997 164.62634386 193.3570492 167.8125 190.3125 C175.33428655 182.36089707 172.18621052 161.94832054 172.18530273 151.50610352 C172.18748832 148.70248189 172.20571454 145.8992556 172.22460938 143.09570312 C172.32777396 110.78082115 167.27413963 79.83957342 144.125 55.75 C139.4221095 51.2186435 134.52526293 47.46823864 129 44 C127.58267578 43.08154297 127.58267578 43.08154297 126.13671875 42.14453125 C99.63998008 25.93590357 67.56187527 18.69807526 37.87033081 10.51779175 C35.55582273 9.87703174 33.24600325 9.22063709 30.9375 8.55859375 C20.70405847 5.63635279 10.41111539 3.20282465 0 1 C0 0.67 0 0.34 0 0 Z " fill="#282994" transform="translate(91,0)"/>
<path d="M0 0 C11.25399044 1.12539904 11.25399044 1.12539904 15.1730957 2.07226562 C16.50466202 2.38947319 16.50466202 2.38947319 17.86312866 2.71308899 C18.79130402 2.94183212 19.71947937 3.17057526 20.67578125 3.40625 C21.67098785 3.64671555 22.66619446 3.88718109 23.69155884 4.13493347 C26.90077766 4.91444893 30.1068703 5.70586213 33.3125 6.5 C34.40958282 6.77010895 35.50666565 7.0402179 36.63699341 7.31851196 C53.98516107 11.60033494 71.06091627 16.29349797 88 22 C89.12857422 22.3722168 90.25714844 22.74443359 91.41992188 23.12792969 C115.35184915 31.02667777 140.10007087 39.70127515 159 57 C159.92425781 57.83144531 160.84851563 58.66289063 161.80078125 59.51953125 C178.19464085 75.0064 186.24741156 94.82187522 190.53076172 116.625 C190.94385562 118.71583116 191.40748218 120.79654363 191.87890625 122.875 C192.63488109 127.35798369 192.68059075 130.58194427 190.68823242 134.7331543 C187.37222184 138.85844094 184.58411679 141.49051528 179.36508179 142.51950073 C171.54394597 143.264765 163.71266931 142.90819912 155.875 142.625 C153.46363376 142.5747902 151.05216728 142.52917148 148.640625 142.48828125 C142.75821512 142.37858392 136.87957587 142.21170275 131 142 C137.29593181 134.57402299 137.29593181 134.57402299 140.2109375 131.69140625 C140.73300781 131.17255859 141.25507813 130.65371094 141.79296875 130.11914062 C142.31503906 129.60544922 142.83710938 129.09175781 143.375 128.5625 C143.92027344 128.02173828 144.46554688 127.48097656 145.02734375 126.92382812 C146.34923464 125.61353277 147.67427618 124.30641716 149 123 C146.37493198 122.97309156 143.75013827 122.95320596 141.125 122.9375 C140.00544922 122.92493164 140.00544922 122.92493164 138.86328125 122.91210938 C134.80154422 122.79311916 134.80154422 122.79311916 131 124 C130.67128906 122.25589844 130.67128906 122.25589844 130.3359375 120.4765625 C125.69204209 96.66750393 118.26022177 69.41593779 97.19140625 54.96875 C88.33212514 49.50353864 79.01945482 45.21805984 69.25390625 41.63671875 C68.43801529 41.33722321 67.62212433 41.03772766 66.7815094 40.72915649 C57.45473847 37.36395094 47.96594128 34.60303397 38.4375 31.875 C36.70099644 31.37169864 34.96466791 30.867793 33.22851562 30.36328125 C22.17503231 27.15947474 11.0930809 24.06364298 0 21 C0 14.07 0 7.14 0 0 Z " fill="#000080" transform="translate(0,58)"/>
<path d="M0 0 C22.44 0 44.88 0 68 0 C62.48974082 24.24514039 62.48974082 24.24514039 60.03125 33.2265625 C59.2649644 36.03047119 58.5150216 38.83602853 57.78125 41.6484375 C57.56855469 42.46352783 57.35585938 43.27861816 57.13671875 44.1184082 C56.7321462 45.67138973 56.32840428 47.22458807 55.92578125 48.77807617 C55.73371094 49.5126001 55.54164063 50.24712402 55.34375 51.00390625 C55.04065918 52.17566406 55.04065918 52.17566406 54.73144531 53.37109375 C54.19503243 55.29902897 53.60282495 57.21166897 52.97949219 59.11328125 C49.98472312 68.52464521 49.34554424 77.1050457 49.25 86.875 C49.2217475 88.35289797 49.1918077 89.83076467 49.16015625 91.30859375 C49.08741089 94.87224911 49.03717408 98.43577452 49 102 C48.01 102.495 48.01 102.495 47 103 C46.97494385 102.28046143 46.9498877 101.56092285 46.92407227 100.81958008 C46.37002816 77.74926193 46.37002816 77.74926193 43 55 C22.705 54.505 22.705 54.505 2 54 C2 53.34 2 52.68 2 52 C15.2 52 28.4 52 42 52 C40.44474459 45.77897838 38.9799897 41.28239014 36.1875 35.75 C35.6915332 34.70972656 35.6915332 34.70972656 35.18554688 33.6484375 C33.06012769 29.38944013 31.02910187 26.72831567 27 24 C26.360625 23.566875 25.72125 23.13375 25.0625 22.6875 C21.97737852 21.65912617 20.09564361 22.052354 17 23 C4.81995356 32.43953599 -0.19471155 52.47527147 -3 67 C-3.29564045 70.03163597 -3.36953982 73.04912869 -3.4140625 76.09375 C-3.43342865 76.92588013 -3.4527948 77.75801025 -3.4727478 78.61535645 C-3.53198326 81.24347042 -3.5787021 83.87162956 -3.625 86.5 C-3.6632315 88.29428873 -3.70228615 90.08856013 -3.7421875 91.8828125 C-3.83763781 96.25506561 -3.92187257 100.62740445 -4 105 C-6 102 -6 102 -7 100 C-8.65 100 -10.3 100 -12 100 C-12.81381795 101.93694678 -13.62600916 103.87457711 -14.4375 105.8125 C-15.11619141 107.43091797 -15.11619141 107.43091797 -15.80859375 109.08203125 C-17.31050139 112.7604739 -18.12962881 115.61635957 -18.20532227 119.56323242 C-18.22526749 120.48396042 -18.24521271 121.40468842 -18.26576233 122.35331726 C-18.29083107 123.83938225 -18.29083107 123.83938225 -18.31640625 125.35546875 C-18.33718735 126.37224197 -18.35796844 127.3890152 -18.37937927 128.43659973 C-18.44480048 131.68683063 -18.50372537 134.93714277 -18.5625 138.1875 C-18.60569227 140.38998238 -18.64930679 142.59245653 -18.69335938 144.79492188 C-18.80047432 150.19653117 -18.90176289 155.59822225 -19 161 C-12.73 161 -6.46 161 0 161 C0 167 0 167 -1.25 168.72265625 C-1.8275 169.16480469 -2.405 169.60695312 -3 170.0625 C-3.95326172 170.805 -3.95326172 170.805 -4.92578125 171.5625 C-6.97128892 172.9801023 -9.05415995 174.28169547 -11.1875 175.5625 C-16.47069391 178.8058507 -18.78432655 181.86236519 -20.3125 187.875 C-21.60452603 192.30101738 -23.00512151 195.61805422 -26.41796875 198.79296875 C-32.3629986 201.57211281 -39.60738742 200.45301979 -46 200 C-40.44964797 193.21623641 -34.23557973 187.14477032 -28 181 C-30.56428515 180.86440325 -33.12135216 180.76566812 -35.6875 180.6875 C-36.40873047 180.64560547 -37.12996094 180.60371094 -37.87304688 180.56054688 C-42.16388405 180.46258256 -43.50979583 180.57330406 -46.89453125 183.51953125 C-47.58933594 184.33808594 -48.28414063 185.15664062 -49 186 C-49.66 186 -50.32 186 -51 186 C-48.63646168 170.11482384 -44.27794263 154.41185882 -39.67944336 139.05004883 C-37.4710812 131.66926289 -35.41864953 124.25738239 -33.4375 116.8125 C-31.19585711 108.40603141 -28.89475682 100.02338197 -26.47583008 91.66625977 C-24.83561825 85.97895151 -23.24647855 80.27923775 -21.68359375 74.5703125 C-13.56175734 44.94476421 -13.56175734 44.94476421 -8.86376953 30.99316406 C-5.45307136 20.74781309 -2.86110116 10.49070427 0 0 Z " fill="#000080" transform="translate(448,0)"/>
<path d="M0 0 C21.45 0 42.9 0 65 0 C70.98450863 13.96385348 74.32645653 24.61075892 75.6875 39.375 C75.75003967 40.0450708 75.81257935 40.7151416 75.87701416 41.40551758 C78.88637347 74.25986654 75.70875703 106.24015193 70.5625 138.6875 C70.3449556 140.05952072 70.3449556 140.05952072 70.12301636 141.45925903 C69.27539682 146.75993708 68.38911328 152.05247654 67.46173096 157.33978271 C67.14465478 159.16658576 66.83597798 160.9948605 66.53436279 162.82427979 C66.0740239 165.60183818 65.58528489 168.37304583 65.08984375 171.14453125 C64.95477921 171.99109787 64.81971466 172.83766449 64.68055725 173.70988464 C63.5891973 179.55835622 63.5891973 179.55835622 60.5949707 181.80273438 C59.73863037 182.19783203 58.88229004 182.59292969 58 183 C56.10501629 184.88694864 56.10501629 184.88694864 54.390625 187.01171875 C42.81733666 200.22370279 42.81733666 200.22370279 36.10546875 201.1171875 C31.97743967 201.24177676 28.04977673 200.77548916 24 200 C26.82641256 196.54549576 29.39763921 193.47144771 32.9296875 190.70703125 C42.4537745 183.06691027 44.05173226 175.08853676 45.40234375 163.2421875 C45.60461711 161.16175306 45.80393234 159.08102846 46 157 C46.20672114 155.14810987 46.41622618 153.29652775 46.62890625 151.4453125 C47.19329362 146.30380037 47.62355885 141.15837211 48 136 C48.05784668 135.23478027 48.11569336 134.46956055 48.17529297 133.68115234 C49.23271388 119.1376927 49.20247772 104.57363196 49 90 C48.99274902 89.2255957 48.98549805 88.45119141 48.97802734 87.65332031 C48.61381072 62.10877123 42.46827278 36.08653768 24.5625 17.125 C17.30428962 10.36735585 8.75169475 5.5422294 0 1 C0 0.67 0 0.34 0 0 Z " fill="#000080" transform="translate(242,0)"/>
<path d="M0 0 C11.88 0 23.76 0 36 0 C42.34455346 38.06732075 38.52314327 76.32811422 30.6484375 113.86035156 C30.01203687 116.94171906 29.40650156 120.02738941 28.8125 123.1171875 C26.16531726 136.83808959 23.04299604 150.40170991 19.71484375 163.97265625 C18.11173038 170.51174223 16.56450017 177.06198392 15.0625 183.625 C14.85109375 184.53725342 14.6396875 185.44950684 14.421875 186.3894043 C14.23238281 187.2225415 14.04289062 188.05567871 13.84765625 188.9140625 C13.68273682 189.6354541 13.51781738 190.3568457 13.34790039 191.10009766 C12.90994001 193.16990689 12.90994001 193.16990689 13 196 C13.39566162 195.5153125 13.79132324 195.030625 14.19897461 194.53125 C26.50031508 179.86202932 26.50031508 179.86202932 33.84765625 178.9375 C37.97684676 178.82803818 41.93912705 179.27628007 46 180 C44.73065083 181.55948612 43.43767138 183.10138211 42.08789062 184.59179688 C39.87401575 187.06575578 39.87401575 187.06575578 37.70898438 190.23632812 C34.01294379 195.04659466 30.27999426 199.18741813 24.21640015 200.68960571 C16.384253 201.62854344 8.54514565 201.18564204 0.6875 200.8125 C-1.71012895 200.74719115 -4.10792958 200.68789312 -6.50585938 200.63476562 C-12.3410269 200.49250852 -18.16970208 200.27588707 -24 200 C-19.91547044 195.19257069 -15.75312877 190.54429335 -11.3125 186.0625 C-10.74466797 185.47404297 -10.17683594 184.88558594 -9.59179688 184.27929688 C-8.11928538 182.79297519 -6.56456151 181.38909667 -5 180 C-4.01 180 -3.02 180 -2 180 C-1.95391602 179.41734375 -1.90783203 178.8346875 -1.86035156 178.234375 C-1.25465621 171.38597957 -0.07358038 164.74149684 1.25 158 C10.11526019 111.31136988 20.78247358 54.64891083 3 9 C1.515 4.545 1.515 4.545 0 0 Z " fill="#282994" transform="translate(307,0)"/>
<path d="M0 0 C6.6 0 13.2 0 20 0 C23.48830663 10.54764654 24.36859946 20.11294615 24.3984375 31.2109375 C24.40117928 31.89853401 24.40392105 32.58613052 24.40674591 33.29456329 C24.4265084 39.79020358 24.39221742 46.28534637 24.33984375 52.78076172 C24.31281705 56.36566624 24.31521956 59.94965614 24.33430862 63.53459549 C24.33589286 65.52971786 24.30361323 67.52477702 24.27035522 69.5196228 C24.31492635 77.74801906 25.58421074 83.62303349 31 90 C33.74613122 92.31483195 36.57333721 94.15605916 39.6875 95.9375 C41.19323322 96.83940477 42.69721221 97.74424624 44.19921875 98.65234375 C44.85752686 99.03382568 45.51583496 99.41530762 46.1940918 99.80834961 C48.05038341 101.0332461 49.48640659 102.37751919 51 104 C51.33 103.67 51.66 103.34 52 103 C53.85287502 102.92773498 55.70833878 102.9161878 57.5625 102.9375 C58.57441406 102.94652344 59.58632813 102.95554687 60.62890625 102.96484375 C61.41136719 102.97644531 62.19382812 102.98804688 63 103 C62.57847656 103.43570313 62.15695312 103.87140625 61.72265625 104.3203125 C58.23634805 108.11013459 56.26119037 110.64559734 56 116 C54.948125 116.226875 53.89625 116.45375 52.8125 116.6875 C49.75015149 117.34800654 48.97422488 118.03083007 46.89118958 120.52238464 C43.19306921 123.69150225 40.36793434 123.67645925 35.72143555 123.56762695 C34.49139046 123.56872215 34.49139046 123.56872215 33.23649597 123.56983948 C30.53588874 123.56636615 27.83702327 123.52751879 25.13671875 123.48828125 C23.26057375 123.47895218 21.38441655 123.47183651 19.508255 123.46684265 C14.5776488 123.44778024 9.64778268 123.39868592 4.71746826 123.34332275 C-0.31650786 123.29211396 -5.35060394 123.26932512 -10.38476562 123.24414062 C-20.25683503 123.19056649 -30.1283559 123.10526278 -40 123 C-39.36764687 122.2871006 -39.36764687 122.2871006 -38.72251892 121.55979919 C-38.17463211 120.93348099 -37.6267453 120.30716278 -37.06225586 119.66186523 C-36.5169371 119.04222397 -35.97161835 118.4225827 -35.40977478 117.78416443 C-33.69142469 115.60947727 -33.07245076 113.774716 -32.5625 111.0625 C-30.82236648 104.4719943 -27.2660281 100.09294522 -21.53125 96.41796875 C-19.81245476 95.43690942 -18.09111967 94.46028556 -16.3671875 93.48828125 C-10.16334089 89.58784304 -6.77798827 84.06265402 -5 77 C-4.57848387 72.3087271 -4.60648224 67.63726192 -4.62890625 62.9296875 C-4.62219612 61.56217439 -4.61361014 60.19466933 -4.60325623 58.82717896 C-4.56351165 53.06253239 -4.56193498 47.29796415 -4.56420898 41.53320312 C-4.56426072 37.99000936 -4.54478014 34.44729987 -4.51487541 30.90423965 C-4.50425318 28.93161552 -4.51609849 26.95891008 -4.52870178 24.98629761 C-4.45452355 15.86196588 -2.79451296 8.61817676 0 0 Z " fill="#D2CFDE" transform="translate(459,77)"/>
<path d="M0 0 C16.23650278 5.41216759 29.65131527 15.33511866 42 27 C42.75023437 27.68578125 43.50046875 28.3715625 44.2734375 29.078125 C57.89537622 41.98311957 67.76337106 59.39951352 74 77 C74 77.66 74 78.32 74 79 C72.82566406 78.96777344 71.65132813 78.93554688 70.44140625 78.90234375 C67.49151358 79.26729883 66.33239964 79.63213412 64.31591797 81.86376953 C63.78756348 82.65251465 63.25920898 83.44125977 62.71484375 84.25390625 C58.9375 89.5625 58.9375 89.5625 47 99 C31.49 99 15.98 99 0 99 C0 66.33 0 33.66 0 0 Z " fill="#000080" transform="translate(0,101)"/>
<path d="M0 0 C7.92 0 15.84 0 24 0 C21.74725083 11.26374585 21.74725083 11.26374585 20.27734375 16.2734375 C19.92913574 17.46549805 19.58092773 18.65755859 19.22216797 19.88574219 C18.81546167 21.25736417 18.40801992 22.62876821 18 24 C17.7667804 24.78572388 17.53356079 25.57144775 17.29327393 26.38098145 C15.106812 33.74331523 12.91831048 41.105113 10.71166992 48.46142578 C7.45411833 59.32870059 4.3776825 70.20112281 1.68406677 81.22264099 C0.1996525 87.28056907 -1.48492344 93.24274688 -3.375 99.1875 C-12.2486794 127.81703394 -19.82941963 156.89903685 -27 186 C-26.195625 185.01 -25.39125 184.02 -24.5625 183 C-19.42180845 178.43763625 -12.92187911 179.51659011 -6.47265625 179.7890625 C-5.32667969 179.85867187 -4.18070312 179.92828125 -3 180 C-4.27010223 181.56041131 -5.56853072 183.10007017 -6.93359375 184.578125 C-9.14740951 187.05207327 -9.14740951 187.05207327 -11.09765625 190.359375 C-14.1325204 194.69303303 -17.03525572 197.92998059 -22 200 C-33.21117414 201.67031297 -44.7353389 200.79727269 -56 200 C-52.07711742 195.29658874 -47.98981304 190.85726049 -43.625 186.5625 C-43.07972656 186.02173828 -42.53445313 185.48097656 -41.97265625 184.92382812 C-40.65076536 183.61353277 -39.32572382 182.30641716 -38 181 C-40.64 180.67 -43.28 180.34 -46 180 C-45.37343271 174.04761078 -44.24390879 168.41639213 -42.75 162.625 C-42.52675049 161.74706787 -42.30350098 160.86913574 -42.07348633 159.96459961 C-40.07947602 152.1827028 -37.93987031 144.44464401 -35.76269531 136.71240234 C-31.30885216 120.87303058 -26.94156338 105.02619148 -23.00805664 89.04882812 C-21.48195448 82.86688323 -19.83614167 76.73783897 -18.05078125 70.625 C-11.73835166 48.84829125 -5.57938378 26.80852122 -1.5078125 4.4921875 C-1 2 -1 2 0 0 Z " fill="#282994" transform="translate(424,0)"/>
<path d="M0 0 C9.24 0 18.48 0 28 0 C28.33237013 19.28977731 27.9764558 37.88928783 25 57 C24.84966309 58.02834961 24.69932617 59.05669922 24.54443359 60.11621094 C20.06439805 90.4948528 12.65137799 120.61160756 4.92602539 150.31225586 C3.72840152 154.93341247 2.66668048 159.55008552 1.7421875 164.234375 C1.53255371 165.26353027 1.32291992 166.29268555 1.10693359 167.35302734 C0.71445612 169.30720522 0.34346798 171.26587602 -0.00146484 173.22900391 C-0.49015487 175.63371916 -0.97091825 177.77182474 -2 180 C-4.6640625 181.125 -4.6640625 181.125 -8 182 C-10.85480136 184.31464405 -13.34332951 186.96576472 -15.875 189.625 C-16.56335938 190.33140625 -17.25171875 191.0378125 -17.9609375 191.765625 C-19.65007434 193.50168231 -21.32913151 195.24638373 -23 197 C-24.21962922 193.46448072 -23.76798243 191.11791656 -22.84765625 187.53125 C-22.56970215 186.42112549 -22.29174805 185.31100098 -22.00537109 184.16723633 C-21.69422363 182.95704834 -21.38307617 181.74686035 -21.0625 180.5 C-20.40733117 177.86914505 -19.75454478 175.23782177 -19.10546875 172.60546875 C-18.934245 171.91378098 -18.76302124 171.2220932 -18.58660889 170.50944519 C-16.56467572 162.30388166 -14.70599368 154.06247815 -12.875 145.8125 C-12.70587097 145.05069427 -12.53674194 144.28888855 -12.36248779 143.5039978 C-9.31158574 129.71791917 -6.54086065 115.88953704 -4 102 C-3.70065934 100.39710954 -3.40118965 98.79424318 -3.1015625 97.19140625 C2.89387718 64.7104203 2.70801233 32.83464945 0 0 Z " fill="#000080" transform="translate(343,0)"/>
<path d="M0 0 C8.58 0 17.16 0 26 0 C22.21881149 20.46290253 17.92566152 40.62993115 11.89672852 60.55639648 C9.22636535 69.43522077 6.98437918 78.43028186 4.67138672 87.40722656 C3.49547262 91.948393 2.27449199 96.47720412 1.05859375 101.0078125 C0.22182522 104.14426586 -0.59239643 107.28620457 -1.40234375 110.4296875 C-5.8869904 127.81329366 -5.8869904 127.81329366 -8.4375 136.25 C-12.79732781 150.68607448 -16.36429283 165.36762187 -20 180 C-21.1653125 180.01933594 -22.330625 180.03867188 -23.53125 180.05859375 C-29.10609209 180.75544901 -31.85475723 184.06133761 -35.5 188.0625 C-36.13164062 188.72572266 -36.76328125 189.38894531 -37.4140625 190.07226562 C-38.95988245 191.70006088 -40.4869347 193.34181566 -42 195 C-43.4327976 191.15046381 -42.55665855 188.35588412 -41.5234375 184.4609375 C-41.27533325 183.51079521 -41.27533325 183.51079521 -41.0222168 182.54145813 C-40.48226114 180.48344251 -39.9287592 178.42934004 -39.375 176.375 C-38.99874095 174.95048005 -38.62325588 173.52575546 -38.24853516 172.10083008 C-36.17831882 164.25876975 -34.01731666 156.44420862 -31.79223633 148.64477539 C-29.68869493 141.1318768 -28.01685006 133.52004145 -26.29150391 125.91333008 C-24.72316784 119.03437598 -23.05855278 112.19456729 -21.25 105.375 C-12.01101025 70.39027741 -3.60918834 36.09188338 0 0 Z " fill="#000080" transform="translate(398,0)"/>
<path d="M0 0 C0.33 0 0.66 0 1 0 C1 66 1 132 1 200 C-8.57 200 -18.14 200 -28 200 C-21.25 192.125 -21.25 192.125 -18.7890625 189.69140625 C-18.26699219 189.17255859 -17.74492188 188.65371094 -17.20703125 188.11914062 C-16.68496094 187.60544922 -16.16289063 187.09175781 -15.625 186.5625 C-15.07972656 186.02173828 -14.53445313 185.48097656 -13.97265625 184.92382812 C-12.65076536 183.61353277 -11.32572382 182.30641716 -10 181 C-10.66 180.01 -11.32 179.02 -12 178 C-20.25935071 134.9698025 -12.20875267 87.10165834 -6.30786133 44.24249268 C-5.9123663 41.36166737 -5.52350593 38.47996607 -5.13478088 35.59822083 C-3.53015847 23.71455562 -1.85205286 11.84781561 0 0 Z " fill="#000180" transform="translate(599,0)"/>
<path d="M0 0 C1.64510941 0.00015915 3.29022379 0.00585551 4.93530273 0.01586914 C6.23164894 0.01799156 6.23164894 0.01799156 7.55418396 0.02015686 C10.32578941 0.025773 13.09731528 0.0383282 15.86889648 0.05102539 C17.74324428 0.05603831 19.61759334 0.06060158 21.49194336 0.06469727 C26.09679192 0.07574767 30.70158069 0.09302309 35.30639648 0.11352539 C32.83599748 11.24099545 30.34751189 22.34436993 27.33764648 33.34008789 C26.57136088 36.14399658 25.82141809 38.94955392 25.08764648 41.76196289 C24.87495117 42.57705322 24.66225586 43.39214355 24.44311523 44.23193359 C24.03854268 45.78491512 23.63480077 47.33811346 23.23217773 48.89160156 C23.04010742 49.62612549 22.84803711 50.36064941 22.65014648 51.11743164 C22.44808594 51.89860352 22.24602539 52.67977539 22.0378418 53.48461914 C21.50142891 55.41255436 20.90922143 57.32519436 20.28588867 59.22680664 C17.2911196 68.6381706 16.65194073 77.21857109 16.55639648 86.98852539 C16.52814399 88.46642336 16.49820419 89.94429006 16.46655273 91.42211914 C16.39380738 94.9857745 16.34357057 98.54929991 16.30639648 102.11352539 C15.31639648 102.60852539 15.31639648 102.60852539 14.30639648 103.11352539 C14.28134033 102.39398682 14.25628418 101.67444824 14.23046875 100.93310547 C13.67642465 77.86278732 13.67642465 77.86278732 10.30639648 55.11352539 C-9.98860352 54.61852539 -9.98860352 54.61852539 -30.69360352 54.11352539 C-30.69360352 53.45352539 -30.69360352 52.79352539 -30.69360352 52.11352539 C-17.49360352 52.11352539 -4.29360352 52.11352539 9.30639648 52.11352539 C7.75114108 45.89250377 6.28638619 41.39591553 3.49389648 35.86352539 C2.99792969 34.82325195 2.99792969 34.82325195 2.49194336 33.76196289 C-0.60957174 27.54702668 -4.69010278 24.54409724 -10.69360352 21.11352539 C-9.71961638 17.7994797 -8.73855144 14.48757182 -7.75610352 11.17602539 C-7.47831055 10.23049805 -7.20051758 9.2849707 -6.91430664 8.31079102 C-6.64682617 7.41166992 -6.3793457 6.51254883 -6.10375977 5.58618164 C-5.85762939 4.75352783 -5.61149902 3.92087402 -5.35791016 3.06298828 C-4.19060013 -0.36257972 -3.97424388 0.12215106 0 0 Z " fill="#282994" transform="translate(480.693603515625,-0.113525390625)"/>
<path d="M0 0 C0.78375 0.04125 1.5675 0.0825 2.375 0.125 C3.00367668 1.49832284 3.62773891 2.87375833 4.25 4.25 C4.77207031 5.39855469 4.77207031 5.39855469 5.3046875 6.5703125 C5.65789062 7.41335937 6.01109375 8.25640625 6.375 9.125 C6.72304688 9.94806641 7.07109375 10.77113281 7.4296875 11.61914062 C8.71471999 16.38491194 8.62231401 20.86058874 8.5703125 25.7734375 C8.5674826 26.78596588 8.56465271 27.79849426 8.56173706 28.84170532 C8.55058254 32.06125938 8.52548646 35.28053065 8.5 38.5 C8.4899641 40.68879805 8.48083931 42.87760049 8.47265625 45.06640625 C8.45065865 50.41937904 8.41616122 55.77214165 8.375 61.125 C2.435 61.125 -3.505 61.125 -9.625 61.125 C-9.74988995 54.97272901 -9.83994111 48.82121813 -9.8996582 42.66796875 C-9.92458823 40.5809237 -9.95854512 38.49396398 -10.00219727 36.40722656 C-10.25078184 24.20611076 -10.4211648 13.17258975 -4.625 2.125 C-2.625 0.125 -2.625 0.125 0 0 Z " fill="#CBCCE0" transform="translate(438.625,98.875)"/>
<path d="M0 0 C1.2065625 0.0309375 1.2065625 0.0309375 2.4375 0.0625 C3.06617668 1.43582284 3.69023891 2.81125833 4.3125 4.1875 C4.83457031 5.33605469 4.83457031 5.33605469 5.3671875 6.5078125 C5.72039062 7.35085937 6.07359375 8.19390625 6.4375 9.0625 C6.78554688 9.88556641 7.13359375 10.70863281 7.4921875 11.55664062 C8.77721999 16.32241194 8.68481401 20.79808874 8.6328125 25.7109375 C8.6299826 26.72346588 8.62715271 27.73599426 8.62423706 28.77920532 C8.61308254 31.99875938 8.58798646 35.21803065 8.5625 38.4375 C8.5524641 40.62629805 8.54333931 42.81510049 8.53515625 45.00390625 C8.51315865 50.35687904 8.47866122 55.70964165 8.4375 61.0625 C2.4975 61.0625 -3.4425 61.0625 -9.5625 61.0625 C-9.71275464 55.08930011 -9.82059978 49.11724083 -9.89208984 43.14257812 C-9.92194383 41.11764321 -9.96264301 39.09283389 -10.01513672 37.06835938 C-10.34857599 23.86154914 -9.54154815 12.99969784 -3.5625 1.0625 C-2.5625 0.0625 -2.5625 0.0625 0 0 Z " fill="#C9CBE0" transform="translate(500.5625,98.9375)"/>
<path d="M0 0 C5.63052782 5.63052782 5.63052782 5.63052782 7.9375 9.109375 C8.44023437 9.86476562 8.94296875 10.62015625 9.4609375 11.3984375 C9.96882812 12.17445313 10.47671875 12.95046875 11 13.75 C11.50789062 14.51054687 12.01578125 15.27109375 12.5390625 16.0546875 C22 30.36738782 22 30.36738782 22 34 C24.98319516 32.3805512 26.95345269 31.0568151 29.125 28.40625 C33.06659003 25.10731052 35.85301912 25.4172852 40.8125 25.6875 C41.60076172 25.71005859 42.38902344 25.73261719 43.20117188 25.75585938 C45.13493929 25.81445839 47.06772167 25.90413173 49 26 C47.73203801 27.55778187 46.43817194 29.09647242 45.08203125 30.578125 C43.44768689 32.47923851 42.13705054 34.2851041 40.76171875 36.359375 C36.80739041 41.73720272 33.2831079 45.45652021 26.46630859 46.58496094 C17.53660799 47.14723781 8.99476488 46.51511869 0 46 C0 30.82 0 15.64 0 0 Z " fill="#282A95" transform="translate(0,154)"/>
<path d="M0 0 C7.0513985 3.94878316 10.44835112 9.33116132 13.75 16.4375 C14.06582031 17.08009766 14.38164062 17.72269531 14.70703125 18.38476562 C16.76678597 22.77623402 17 24.90065725 17 30 C3.8 30 -9.4 30 -23 30 C-23.495 31.485 -23.495 31.485 -24 33 C-25.35370563 28.93888311 -23.97206394 26.32204553 -22.5 22.5 C-22.22736328 21.7874707 -21.95472656 21.07494141 -21.67382812 20.34082031 C-18.77071765 13.03038 -15.31588007 5.17950522 -8.9375 0.25 C-5.29983433 -1.29794284 -3.73806528 -1.24602176 0 0 Z " fill="#6F69ED" transform="translate(473,22)"/>
<path d="M0 0 C2.04514629 1.82706197 2.91478283 3.27736189 3.23754883 6.0144043 C3.29548224 8.43306046 3.26117872 10.83182675 3.1875 13.25 C3.16719727 14.51070312 3.16719727 14.51070312 3.14648438 15.796875 C3.11123464 17.86485938 3.0574302 19.93251271 3 22 C5.97 22 8.94 22 12 22 C12 24.31 12 26.62 12 29 C-4.17 29 -20.34 29 -37 29 C-37.33 26.69 -37.66 24.38 -38 22 C-35.03 22 -32.06 22 -29 22 C-29 23.32 -29 24.64 -29 26 C-24.71 26 -20.42 26 -16 26 C-16 24.68 -16 23.36 -16 22 C-14.02 22 -12.04 22 -10 22 C-10.05220703 20.37191406 -10.05220703 20.37191406 -10.10546875 18.7109375 C-10.13362388 17.26564058 -10.16092219 15.82032679 -10.1875 14.375 C-10.21263672 13.66214844 -10.23777344 12.94929687 -10.26367188 12.21484375 C-10.32991312 7.40131308 -9.65443674 4.17768494 -7 0 C-4.24438552 -1.37780724 -2.90228766 -0.92023755 0 0 Z " fill="#6BA3EA" transform="translate(483,171)"/>
<path d="M0 0 C3.69230769 0.69230769 3.69230769 0.69230769 5 2 C5.10366483 3.54921131 5.13851499 5.1031006 5.14526367 6.65576172 C5.15483345 8.14268021 5.15483345 8.14268021 5.16459656 9.65963745 C5.16570938 10.73875397 5.1668222 11.81787048 5.16796875 12.9296875 C5.17129715 14.03095978 5.17462555 15.13223206 5.17805481 16.26687622 C5.18312928 18.60222962 5.18546298 20.93759031 5.18530273 23.27294922 C5.18748637 26.85266044 5.20562896 30.43206225 5.22460938 34.01171875 C5.22754371 36.27604061 5.22952824 38.54036394 5.23046875 40.8046875 C5.23765427 41.87975555 5.24483978 42.95482361 5.25224304 44.06246948 C5.24916641 45.0600528 5.24608978 46.05763611 5.24291992 47.08544922 C5.24434494 47.96401581 5.24576996 48.8425824 5.24723816 49.74777222 C5 52 5 52 3 55 C-2.54854369 55.61650485 -2.54854369 55.61650485 -5 55 C-7.69858674 52.27693628 -8.45057748 50.16817862 -8.5 46.375 C-8.37118601 41.25274974 -6.70706286 37.62716979 -4.19140625 33.2265625 C-2.03581339 29.19807748 -1.84800327 25.48811447 -1.71875 20.95703125 C-1.68136719 19.80138672 -1.64398438 18.64574219 -1.60546875 17.45507812 C-1.53481722 15.01498375 -1.46450796 12.57487944 -1.39453125 10.13476562 C-1.35714844 8.98298828 -1.31976563 7.83121094 -1.28125 6.64453125 C-1.25095703 5.58596924 -1.22066406 4.52740723 -1.18945312 3.43676758 C-1 1 -1 1 0 0 Z " fill="#BAADB8" transform="translate(472,111)"/>
<path d="M0 0 C-1.26104031 1.5492781 -2.54042414 3.08474485 -3.8671875 4.578125 C-5.03133244 5.90004782 -6.18566053 7.23204042 -7.28613281 8.60742188 C-15.77836178 19.16532816 -15.77836178 19.16532816 -21.2578125 20.58496094 C-26.23767392 21.11294129 -31.05623023 20.69271984 -36 20 C-34.73895969 18.4507219 -33.45957586 16.91525515 -32.1328125 15.421875 C-30.96866756 14.09995218 -29.81433947 12.76795958 -28.71386719 11.39257812 C-20.04128114 0.61044412 -13.72169916 -1.9226812 0 0 Z " fill="#4CD1D5" transform="translate(590,180)"/>
<path d="M0 0 C-1.26104031 1.5492781 -2.54042414 3.08474485 -3.8671875 4.578125 C-5.03133244 5.90004782 -6.18566053 7.23204042 -7.28613281 8.60742188 C-15.77836178 19.16532816 -15.77836178 19.16532816 -21.2578125 20.58496094 C-26.23767392 21.11294129 -31.05623023 20.69271984 -36 20 C-34.73895969 18.4507219 -33.45957586 16.91525515 -32.1328125 15.421875 C-30.96866756 14.09995218 -29.81433947 12.76795958 -28.71386719 11.39257812 C-20.04128114 0.61044412 -13.72169916 -1.9226812 0 0 Z " fill="#4CD0D5" transform="translate(556,180)"/>
<path d="M0 0 C-1.26104031 1.5492781 -2.54042414 3.08474485 -3.8671875 4.578125 C-5.03133244 5.90004782 -6.18566053 7.23204042 -7.28613281 8.60742188 C-15.77836178 19.16532816 -15.77836178 19.16532816 -21.2578125 20.58496094 C-26.23767392 21.11294129 -31.05623023 20.69271984 -36 20 C-34.73895969 18.4507219 -33.45957586 16.91525515 -32.1328125 15.421875 C-30.96866756 14.09995218 -29.81433947 12.76795958 -28.71386719 11.39257812 C-20.04128114 0.61044412 -13.72169916 -1.9226812 0 0 Z " fill="#4BD0D5" transform="translate(421,180)"/>
<path d="M0 0 C-1.26104031 1.5492781 -2.54042414 3.08474485 -3.8671875 4.578125 C-5.03133244 5.90004782 -6.18566053 7.23204042 -7.28613281 8.60742188 C-15.77836178 19.16532816 -15.77836178 19.16532816 -21.2578125 20.58496094 C-26.23767392 21.11294129 -31.05623023 20.69271984 -36 20 C-34.73895969 18.4507219 -33.45957586 16.91525515 -32.1328125 15.421875 C-30.96866756 14.09995218 -29.81433947 12.76795958 -28.71386719 11.39257812 C-20.04128114 0.61044412 -13.72169916 -1.9226812 0 0 Z " fill="#4BD1D5" transform="translate(387,180)"/>
<path d="M0 0 C-1.26104031 1.5492781 -2.54042414 3.08474485 -3.8671875 4.578125 C-5.03133244 5.90004782 -6.18566053 7.23204042 -7.28613281 8.60742188 C-15.77836178 19.16532816 -15.77836178 19.16532816 -21.2578125 20.58496094 C-26.23767392 21.11294129 -31.05623023 20.69271984 -36 20 C-34.73895969 18.4507219 -33.45957586 16.91525515 -32.1328125 15.421875 C-30.96866756 14.09995218 -29.81433947 12.76795958 -28.71386719 11.39257812 C-20.04128114 0.61044412 -13.72169916 -1.9226812 0 0 Z " fill="#4BD1D5" transform="translate(353,180)"/>
<path d="M0 0 C-1.26104031 1.5492781 -2.54042414 3.08474485 -3.8671875 4.578125 C-5.03133244 5.90004782 -6.18566053 7.23204042 -7.28613281 8.60742188 C-15.77836178 19.16532816 -15.77836178 19.16532816 -21.2578125 20.58496094 C-26.23767392 21.11294129 -31.05623023 20.69271984 -36 20 C-34.73895969 18.4507219 -33.45957586 16.91525515 -32.1328125 15.421875 C-30.96866756 14.09995218 -29.81433947 12.76795958 -28.71386719 11.39257812 C-20.04128114 0.61044412 -13.72169916 -1.9226812 0 0 Z " fill="#4BD0D5" transform="translate(319,180)"/>
<path d="M0 0 C-1.26104031 1.5492781 -2.54042414 3.08474485 -3.8671875 4.578125 C-5.03133244 5.90004782 -6.18566053 7.23204042 -7.28613281 8.60742188 C-15.77836178 19.16532816 -15.77836178 19.16532816 -21.2578125 20.58496094 C-26.23767392 21.11294129 -31.05623023 20.69271984 -36 20 C-34.73895969 18.4507219 -33.45957586 16.91525515 -32.1328125 15.421875 C-30.96866756 14.09995218 -29.81433947 12.76795958 -28.71386719 11.39257812 C-20.04128114 0.61044412 -13.72169916 -1.9226812 0 0 Z " fill="#4BD0D5" transform="translate(252,180)"/>
<path d="M0 0 C-1.26104031 1.5492781 -2.54042414 3.08474485 -3.8671875 4.578125 C-5.03133244 5.90004782 -6.18566053 7.23204042 -7.28613281 8.60742188 C-15.77836178 19.16532816 -15.77836178 19.16532816 -21.2578125 20.58496094 C-26.23767392 21.11294129 -31.05623023 20.69271984 -36 20 C-34.73895969 18.4507219 -33.45957586 16.91525515 -32.1328125 15.421875 C-30.96866756 14.09995218 -29.81433947 12.76795958 -28.71386719 11.39257812 C-20.04128114 0.61044412 -13.72169916 -1.9226812 0 0 Z " fill="#4CD1D5" transform="translate(218,180)"/>
<path d="M0 0 C-1.26104031 1.5492781 -2.54042414 3.08474485 -3.8671875 4.578125 C-5.03133244 5.90004782 -6.18566053 7.23204042 -7.28613281 8.60742188 C-15.77836178 19.16532816 -15.77836178 19.16532816 -21.2578125 20.58496094 C-26.23767392 21.11294129 -31.05623023 20.69271984 -36 20 C-34.73895969 18.4507219 -33.45957586 16.91525515 -32.1328125 15.421875 C-30.96866756 14.09995218 -29.81433947 12.76795958 -28.71386719 11.39257812 C-20.04128114 0.61044412 -13.72169916 -1.9226812 0 0 Z " fill="#4BD1D5" transform="translate(184,180)"/>
<path d="M0 0 C-1.26104031 1.5492781 -2.54042414 3.08474485 -3.8671875 4.578125 C-5.03133244 5.90004782 -6.18566053 7.23204042 -7.28613281 8.60742188 C-15.77836178 19.16532816 -15.77836178 19.16532816 -21.2578125 20.58496094 C-26.23767392 21.11294129 -31.05623023 20.69271984 -36 20 C-34.73895969 18.4507219 -33.45957586 16.91525515 -32.1328125 15.421875 C-30.96866756 14.09995218 -29.81433947 12.76795958 -28.71386719 11.39257812 C-20.04128114 0.61044412 -13.72169916 -1.9226812 0 0 Z " fill="#4BD0D5" transform="translate(150,180)"/>
<path d="M0 0 C-1.26104031 1.5492781 -2.54042414 3.08474485 -3.8671875 4.578125 C-5.03133244 5.90004782 -6.18566053 7.23204042 -7.28613281 8.60742188 C-15.77836178 19.16532816 -15.77836178 19.16532816 -21.2578125 20.58496094 C-26.23767392 21.11294129 -31.05623023 20.69271984 -36 20 C-34.73895969 18.4507219 -33.45957586 16.91525515 -32.1328125 15.421875 C-30.96866756 14.09995218 -29.81433947 12.76795958 -28.71386719 11.39257812 C-20.04128114 0.61044412 -13.72169916 -1.9226812 0 0 Z " fill="#4BD0D5" transform="translate(83,180)"/>
<path d="M0 0 C-1.26104031 1.5492781 -2.54042414 3.08474485 -3.8671875 4.578125 C-5.03133244 5.90004782 -6.18566053 7.23204042 -7.28613281 8.60742188 C-15.77836178 19.16532816 -15.77836178 19.16532816 -21.2578125 20.58496094 C-26.23767392 21.11294129 -31.05623023 20.69271984 -36 20 C-34.73895969 18.4507219 -33.45957586 16.91525515 -32.1328125 15.421875 C-30.96866756 14.09995218 -29.81433947 12.76795958 -28.71386719 11.39257812 C-20.04128114 0.61044412 -13.72169916 -1.9226812 0 0 Z " fill="#4BD1D5" transform="translate(49,180)"/>
<path d="M0 0 C3.85145027 1.3480076 5.49328622 4.49543917 7.5 7.875 C8.78051337 10.71268085 9.78403237 13.60487331 10.75 16.5625 C11.00523437 17.30822266 11.26046875 18.05394531 11.5234375 18.82226562 C12.20544339 20.83418301 12.87598708 22.84435362 13.5 24.875 C13.67472336 25.43804337 13.84944672 26.00108673 14.02946472 26.58119202 C14.64513872 29.58253539 14.61928594 32.41487993 14.61352539 35.47949219 C14.61367142 36.13356552 14.61381744 36.78763885 14.6139679 37.46153259 C14.61327341 39.61501426 14.60550283 41.76840852 14.59765625 43.921875 C14.59579042 45.41831414 14.59436729 46.91475388 14.59336853 48.41119385 C14.58955635 52.34358415 14.57973717 56.27593732 14.56866455 60.20831299 C14.55842249 64.22350563 14.55386492 68.2387043 14.54882812 72.25390625 C14.53811372 80.12762117 14.52105291 88.00130596 14.5 95.875 C14.17 95.875 13.84 95.875 13.5 95.875 C13.49120064 94.76318359 13.49120064 94.76318359 13.48222351 93.62890625 C13.42380152 86.56993673 13.35145293 79.51126992 13.26428509 72.4526062 C13.21996311 68.825524 13.1806289 65.19854434 13.15356445 61.57128906 C13.0270064 39.55548894 13.0270064 39.55548894 9.5 17.875 C2.9 17.875 -3.7 17.875 -10.5 17.875 C-6.433685 2.25178975 -6.433685 2.25178975 0 0 Z " fill="#4B161B" transform="translate(469.5,59.125)"/>
<path d="M0 0 C1.79532209 3.41722815 2.24223804 6.25759961 2.1953125 10.08203125 C2.18564453 11.47905273 2.18564453 11.47905273 2.17578125 12.90429688 C2.15902344 13.86400391 2.14226562 14.82371094 2.125 15.8125 C2.11597656 16.79154297 2.10695313 17.77058594 2.09765625 18.77929688 C2.07417326 21.18630348 2.03830477 23.59318364 2 26 C-2.29 26 -6.58 26 -11 26 C-11.08107913 22.60368528 -11.14053944 19.20931384 -11.1875 15.8125 C-11.21263672 14.85279297 -11.23777344 13.89308594 -11.26367188 12.90429688 C-11.3568739 3.92583557 -11.3568739 3.92583557 -8 0 C-5.01122021 -1.4943899 -3.14997454 -0.91874257 0 0 Z " fill="#6897D9" transform="translate(465,171)"/>
<path d="M0 0 C-1.26051005 1.54862664 -2.53880212 3.08384086 -3.86328125 4.578125 C-5.03148682 5.90223369 -6.19070693 7.23539828 -7.30224609 8.60742188 C-16.65563941 20.08091768 -16.65563941 20.08091768 -23.40234375 20.8359375 C-27.32804278 20.94683052 -31.12064913 20.58264962 -35 20 C-33.73948995 18.45137336 -32.46119788 16.91615914 -31.13671875 15.421875 C-29.96851318 14.09776631 -28.80929307 12.76460172 -27.69775391 11.39257812 C-19.2617757 1.04444486 -13.33288664 -2.0025003 0 0 Z " fill="#4DD5D7" transform="translate(285,180)"/>
<path d="M0 0 C-1.26051005 1.54862664 -2.53880212 3.08384086 -3.86328125 4.578125 C-5.03148682 5.90223369 -6.19070693 7.23539828 -7.30224609 8.60742188 C-16.65563941 20.08091768 -16.65563941 20.08091768 -23.40234375 20.8359375 C-27.32804278 20.94683052 -31.12064913 20.58264962 -35 20 C-33.73948995 18.45137336 -32.46119788 16.91615914 -31.13671875 15.421875 C-29.96851318 14.09776631 -28.80929307 12.76460172 -27.69775391 11.39257812 C-19.2617757 1.04444486 -13.33288664 -2.0025003 0 0 Z " fill="#4DD5D7" transform="translate(116,180)"/>
<path d="M0 0 C1.74271938 2.297221 3.39911152 4.59866729 5 7 C5.33 6.34 5.66 5.68 6 5 C16.395 4.505 16.395 4.505 27 4 C27 11.26 27 18.52 27 26 C24.36 24.02 21.72 22.04 19 20 C16.29528672 18.32283627 16.29528672 18.32283627 13.57080078 16.67822266 C7.37540109 12.96717652 3.02255458 9.74262176 0 3 C0 2.01 0 1.02 0 0 Z " fill="#4A161B" transform="translate(484,156)"/>
<path d="M0 0 C0.66 3.96 1.32 7.92 2 12 C6.93711719 9.15434873 6.93711719 9.15434873 11 6 C11 9.96 11 13.92 11 18 C1.43 18 -8.14 18 -18 18 C-14.1530014 13.51183497 -10.36662148 9.20722542 -6.1875 5.0625 C-5.69830078 4.56943359 -5.20910156 4.07636719 -4.70507812 3.56835938 C-1.12682039 0 -1.12682039 0 0 0 Z " fill="#282C95" transform="translate(589,182)"/>
<path d="M0 0 C6.6 0 13.2 0 20 0 C20 6 20 6 18.75 7.72265625 C18.1725 8.16480469 17.595 8.60695312 17 9.0625 C16.36320312 9.5575 15.72640625 10.0525 15.0703125 10.5625 C12.4494849 12.38224445 9.76832251 14.05653103 6.9921875 15.62890625 C4.31420305 17.38313286 4.31420305 17.38313286 0 22 C0 14.74 0 7.48 0 0 Z " fill="#4A1415" transform="translate(428,161)"/>
<path d="M0 0 C2.3125 0 2.3125 0 5 1 C10.75585644 6.88667136 11.17463635 10.93407037 11.125 18.875 C11.12306641 19.61935303 11.12113281 20.36370605 11.11914062 21.13061523 C11.06564602 28.11537605 10.61752135 35.04185769 10 42 C8.68 41.34 7.36 40.68 6 40 C6.00636475 39.38592285 6.01272949 38.7718457 6.01928711 38.13916016 C6.5871582 22.85520347 6.5871582 22.85520347 -0.50390625 10 C-2.56924791 7.23902107 -2.39737624 5.36171166 -2 2 C-1.34 1.34 -0.68 0.68 0 0 Z " fill="#6958C4" transform="translate(481,59)"/>
<path d="M0 0 C5.95156992 0.87523087 9.13553847 3.4816657 13 8 C24.69306798 26.9124723 27.2283336 48.41227309 27.0625 70.1875 C27.05798828 71.33025391 27.05347656 72.47300781 27.04882812 73.65039062 C27.03718268 76.4336511 27.02082997 79.21679572 27 82 C26.01 82.495 26.01 82.495 25 83 C24.97494385 82.28046143 24.9498877 81.56092285 24.92407227 80.81958008 C24.37002816 57.74926193 24.37002816 57.74926193 21 35 C0.705 34.505 0.705 34.505 -20 34 C-20 33.34 -20 32.68 -20 32 C-6.8 32 6.4 32 20 32 C18.44474459 25.77897838 16.9799897 21.28239014 14.1875 15.75 C13.85685547 15.05648437 13.52621094 14.36296875 13.18554688 13.6484375 C10.49168855 8.25037973 7.38746274 5.43247765 2.1875 2.3125 C1.465625 1.879375 0.74375 1.44625 0 1 C0 0.67 0 0.34 0 0 Z " fill="#4F264A" transform="translate(470,20)"/>
<path d="M0 0 C2.97 0 5.94 0 9 0 C9 1.32 9 2.64 9 4 C13.29 4 17.58 4 22 4 C22 2.68 22 1.36 22 0 C23.98 0 25.96 0 28 0 C28 1.32 28 2.64 28 4 C32.29 4 36.58 4 41 4 C41 2.68 41 1.36 41 0 C43.97 0 46.94 0 50 0 C50 2.31 50 4.62 50 7 C33.83 7 17.66 7 1 7 C0.67 4.69 0.34 2.38 0 0 Z " fill="#491415" transform="translate(445,193)"/>
<path d="M0 0 C1.2065625 0.0309375 1.2065625 0.0309375 2.4375 0.0625 C8.4375 13.16929612 8.4375 13.16929612 8.4375 19.0625 C3.1575 19.0625 -2.1225 19.0625 -7.5625 19.0625 C-8.64385518 13.65572409 -8.20213704 12.2322214 -6.1875 7.3125 C-5.72601563 6.16265625 -5.26453125 5.0128125 -4.7890625 3.828125 C-3.12508271 0.07622153 -3.12508271 0.07622153 0 0 Z " fill="#C0B8CA" transform="translate(500.5625,98.9375)"/>
<path d="M0 0 C1.2065625 0.0309375 1.2065625 0.0309375 2.4375 0.0625 C5.10096851 5.64802621 7.2618472 10.97048094 8.4375 17.0625 C8.1075 17.7225 7.7775 18.3825 7.4375 19.0625 C2.4875 19.0625 -2.4625 19.0625 -7.5625 19.0625 C-7.5625 17.7425 -7.5625 16.4225 -7.5625 15.0625 C-7.8925 14.4025 -8.2225 13.7425 -8.5625 13.0625 C-7.6015625 10.27734375 -7.6015625 10.27734375 -6.1875 7 C-5.72601563 5.91589844 -5.26453125 4.83179687 -4.7890625 3.71484375 C-3.10618756 0.07576067 -3.10618756 0.07576067 0 0 Z " fill="#BFB7C9" transform="translate(438.5625,98.9375)"/>
<path d="M0 0 C0.80646973 0.03665771 1.61293945 0.07331543 2.44384766 0.11108398 C3.32685547 0.13364258 4.20986328 0.15620117 5.11962891 0.17944336 C6.02326172 0.2380957 6.92689453 0.29674805 7.85791016 0.35717773 C8.78474609 0.38875977 9.71158203 0.4203418 10.66650391 0.45288086 C12.94195253 0.53498468 15.21074762 0.64967998 17.48291016 0.79467773 C17.81291016 3.10467773 18.14291016 5.41467773 18.48291016 7.79467773 C9.57291016 7.79467773 0.66291016 7.79467773 -8.51708984 7.79467773 C-2.51708984 0.79467773 -2.51708984 0.79467773 0 0 Z " fill="#4DD5D7" transform="translate(427.51708984375,192.205322265625)"/>
<path d="M0 0 C1.69193359 3.38386718 0.24788179 7.03184949 -0.4375 10.625 C-0.58509766 11.42679688 -0.73269531 12.22859375 -0.88476562 13.0546875 C-1.2506507 15.03754855 -1.62457121 17.01892377 -2 19 C-7.28 19 -12.56 19 -18 19 C-12.44964797 12.21623641 -6.23557973 6.14477032 0 0 Z " fill="#293197" transform="translate(284,181)"/>
<path d="M0 0 C3.79796235 0.0364022 4.62977137 0.28843539 7.875 2.625 C9.75 5.375 9.75 5.375 9.625 7.625 C8.75 9.375 8.75 9.375 7.75 10.375 C1.61725217 10.43955524 -2.4798234 9.16667884 -7.25 5.375 C-4.74809098 0.20438802 -4.74809098 0.20438802 0 0 Z " fill="#BAADB8" transform="translate(500.25,180.625)"/>
<path d="M0 0 C4.95 0 9.9 0 15 0 C10.60831493 5.27002208 6.0573621 10.35302051 1 15 C0.67 15 0.34 15 0 15 C0 10.05 0 5.1 0 0 Z " fill="#4CD1D5" transform="translate(0,180)"/>
<path d="M0 0 C1.93166016 0.01740234 1.93166016 0.01740234 3.90234375 0.03515625 C5.19269531 0.04417969 6.48304688 0.05320312 7.8125 0.0625 C8.81152344 0.07410156 9.81054688 0.08570312 10.83984375 0.09765625 C10.83984375 2.73765625 10.83984375 5.37765625 10.83984375 8.09765625 C5.88984375 8.09765625 0.93984375 8.09765625 -4.16015625 8.09765625 C-4.16015625 0.1285586 -4.16015625 0.1285586 0 0 Z " fill="#4E1A1D" transform="translate(466.16015625,82.90234375)"/>
<path d="M0 0 C1.35148541 4.30785975 2 7.41957592 2 12 C-2.95 12 -7.9 12 -13 12 C-2.88235294 0 -2.88235294 0 0 0 Z " fill="#010180" transform="translate(77,188)"/>
<path d="M0 0 C0 3.96 0 7.92 0 12 C-3.96 12 -7.92 12 -12 12 C-1.88235294 0 -1.88235294 0 0 0 Z " fill="#4DD5D7" transform="translate(600,188)"/>
<path d="M0 0 C4.62 0 9.24 0 14 0 C9.17970402 6.74841438 9.17970402 6.74841438 5.8203125 7.46484375 C3.625 7.4375 3.625 7.4375 0 7 C0 4.69 0 2.38 0 0 Z " fill="#4BCFD5" transform="translate(495,193)"/>
<path d="M0 0 C0.66 0 1.32 0 2 0 C4.95888097 6.56099693 6.27581975 11.6907766 6 19 C5.67 19.66 5.34 20.32 5 21 C4.01 21 3.02 21 2 21 C1.6616656 18.62561751 1.32920998 16.25065041 1 13.875 C0.90460938 13.20984375 0.80921875 12.5446875 0.7109375 11.859375 C0.16388547 7.87371019 -0.10022182 4.02140062 0 0 Z " fill="#BAADB8" transform="translate(502,131)"/>
<path d="M0 0 C0.66 0.33 1.32 0.66 2 1 C2.042721 2.66611905 2.04063832 4.33382885 2 6 C1 7 1 7 -1.06640625 7.09765625 C-1.89011719 7.08605469 -2.71382813 7.07445312 -3.5625 7.0625 C-4.38878906 7.05347656 -5.21507812 7.04445312 -6.06640625 7.03515625 C-6.70449219 7.02355469 -7.34257812 7.01195312 -8 7 C-8.66 5.68 -9.32 4.36 -10 3 C-7.29533098 -0.81835627 -4.38726992 -0.31907418 0 0 Z " fill="#BAAEB9" transform="translate(446,180)"/>
<path d="M0 0 C1.32 0.33 2.64 0.66 4 1 C4 4.63 4 8.26 4 12 C2.02 12.99 2.02 12.99 0 14 C-1.58177926 9.84782943 -2.40478458 6.45263035 -2 2 C-1.34 1.34 -0.68 0.68 0 0 Z " fill="#BBAEBA" transform="translate(440,140)"/>
<path d="M0 0 C0.33 2.31 0.66 4.62 1 7 C-2.63 7 -6.26 7 -10 7 C-4.5 0 -4.5 0 0 0 Z " fill="#3C4FA7" transform="translate(445,193)"/>
<path d="M0 0 C3.63 0 7.26 0 11 0 C10.030625 1.03125 9.06125 2.0625 8.0625 3.125 C5.28598399 6.33269262 4.21129205 8.66851306 4 13 C3.67 13 3.34 13 3 13 C2.86722656 12.39671875 2.73445312 11.7934375 2.59765625 11.171875 C2.42105469 10.37265625 2.24445312 9.5734375 2.0625 8.75 C1.88847656 7.96109375 1.71445312 7.1721875 1.53515625 6.359375 C1.0527843 4.23271327 0.52889301 2.11557202 0 0 Z " fill="#4FC6D2" transform="translate(511,180)"/>
<path d="M0 0 C0.33 0.66 0.66 1.32 1 2 C0.67 2.66 0.34 3.32 0 4 C-0.15004973 5.3734635 -0.24838006 6.7528526 -0.31640625 8.1328125 C-0.35830078 8.93847656 -0.40019531 9.74414062 -0.44335938 10.57421875 C-0.50233398 11.83685547 -0.50233398 11.83685547 -0.5625 13.125 C-0.60568359 13.97449219 -0.64886719 14.82398438 -0.69335938 15.69921875 C-0.79954236 17.79928223 -0.90028497 19.89961948 -1 22 C-1.66 22 -2.32 22 -3 22 C-3.33 16.06 -3.66 10.12 -4 4 C-3.34 4 -2.68 4 -2 4 C-1.34 2.68 -0.68 1.36 0 0 Z " fill="#553F60" transform="translate(477,173)"/>
<path d="M0 0 C0.66 0 1.32 0 2 0 C0.91755848 2.43549343 -0.18583605 4.21580961 -1.9375 6.25 C-5.69646381 11.26195175 -7.22702201 16.81617605 -8 23 C-8.66 23 -9.32 23 -10 23 C-9.56288327 13.55827869 -6.50009876 6.84220922 0 0 Z " fill="#6B97EF" transform="translate(465,26)"/>
<path d="M0 0 C0.99 0.33 1.98 0.66 3 1 C2.54177532 4.46941546 2.10868317 7.67395049 1 11 C-0.32 10.67 -1.64 10.34 -3 10 C-2.01 6.7 -1.02 3.4 0 0 Z " fill="#99ADDE" transform="translate(433,104)"/>
<path d="M0 0 C1.32 0.33 2.64 0.66 4 1 C3.01 3.97 2.02 6.94 1 10 C0.34 10 -0.32 10 -1 10 C-2.46726798 6.18510326 -1.43336419 3.70988378 0 0 Z " fill="#9EB5E7" transform="translate(495,104)"/>
<path d="M0 0 C1.68762851 1.6454378 3.3540349 3.31288577 5 5 C5 5.33 5 5.66 5 6 C3.35 6 1.7 6 0 6 C0 4.02 0 2.04 0 0 Z " fill="#67A8ED" transform="translate(495,194)"/>
<path d="M0 0 C1 2 1 2 0.0625 5.125 C-0.288125 6.07375 -0.63875 7.0225 -1 8 C-1.99 7.67 -2.98 7.34 -4 7 C-4 6.01 -4 5.02 -4 4 C-3.34 4 -2.68 4 -2 4 C-1.34 2.68 -0.68 1.36 0 0 Z " fill="#5B5D86" transform="translate(477,173)"/>
<path d="M0 0 C1.24546405 2.49092811 0.7767578 3.41080733 0 6 C-1.65 6 -3.3 6 -5 6 C-3.35 4.02 -1.7 2.04 0 0 Z " fill="#060A84" transform="translate(373,194)"/>
</svg>
