<?xml version="1.0" standalone="no"?>
<!DOCTYPE svg PUBLIC "-//W3C//DTD SVG 20010904//EN"
 "http://www.w3.org/TR/2001/REC-SVG-20010904/DTD/svg10.dtd">
<svg version="1.0" xmlns="http://www.w3.org/2000/svg"
 width="225.000000pt" height="225.000000pt" viewBox="0 0 225.000000 225.000000"
 preserveAspectRatio="xMidYMid meet">

<g transform="translate(0.000000,225.000000) scale(0.100000,-0.100000)"
fill="#000000" stroke="none">
<path d="M1162 1813 c-15 -3 -22 -10 -18 -19 4 -10 -2 -14 -19 -14 -26 0 -34
-15 -12 -23 9 -4 9 -8 -1 -15 -11 -7 -10 -10 3 -16 9 -3 21 -3 26 0 5 3 9 2 8
-3 -4 -21 2 -33 16 -33 8 0 15 -4 15 -10 0 -6 -28 -10 -65 -10 -37 0 -65 4
-65 10 0 6 14 10 30 10 17 0 30 4 30 9 0 16 -20 23 -33 13 -19 -15 -68 -21
-64 -8 2 6 19 14 38 17 19 4 30 7 25 8 -5 0 -3 7 3 15 9 11 5 16 -20 25 -18 6
-43 11 -55 11 -14 0 -24 6 -24 15 0 11 -7 10 -36 -7 -20 -12 -38 -27 -41 -35
-3 -8 -17 -19 -31 -24 -20 -8 -28 -6 -34 6 -5 8 -17 15 -27 15 -21 0 -35 -26
-20 -36 6 -4 4 -13 -7 -25 -22 -25 -30 -24 -37 3 l-6 22 -24 -22 c-13 -12 -28
-22 -34 -22 -7 0 -13 -10 -15 -22 -2 -17 -9 -22 -26 -20 -12 2 -21 0 -20 -5 1
-4 -4 -24 -11 -44 -12 -30 -18 -35 -37 -31 -24 4 -33 -11 -14 -23 6 -3 10 -15
10 -25 0 -10 7 -23 16 -28 14 -8 14 -13 4 -31 l-12 -23 -22 21 c-26 25 -56 19
-56 -10 0 -13 -5 -17 -16 -12 -14 5 -15 1 -9 -25 4 -18 1 -40 -6 -54 -7 -13
-14 -43 -15 -67 -1 -39 -10 -54 -37 -64 -13 -4 44 -86 64 -92 18 -6 34 -34 24
-43 -3 -3 -17 1 -31 9 -23 12 -27 11 -39 -5 -20 -26 -8 -48 25 -44 27 2 60
-16 60 -34 0 -5 -9 -4 -21 2 -27 15 -35 6 -21 -25 11 -24 0 -36 -13 -15 -11
18 -25 11 -24 -12 0 -13 3 -18 5 -12 3 7 13 10 23 7 12 -3 18 -14 18 -35 l0
-31 -19 23 c-19 23 -25 16 -8 -10 6 -9 5 -17 -3 -23 -9 -6 -8 -10 3 -14 31
-12 90 -88 90 -115 0 -16 9 -37 20 -48 11 -11 17 -26 14 -33 -4 -10 32 -37 50
-37 3 0 6 23 7 52 0 21 15 32 29 23 6 -4 4 -15 -6 -30 -22 -34 -14 -67 21 -85
17 -8 53 -29 80 -46 157 -96 349 -128 517 -85 74 19 176 65 230 102 14 11 33
19 40 19 21 0 48 33 48 56 0 11 -7 29 -15 40 -17 23 -19 34 -4 34 10 0 35 -58
31 -73 -3 -10 3 -9 33 5 16 7 24 17 20 26 -3 8 2 24 12 34 10 11 18 30 18 42
2 26 71 116 89 116 7 0 12 15 12 36 0 35 0 35 -16 14 -17 -22 -17 -22 -17 9 0
32 25 51 39 29 5 -9 8 -6 8 10 0 19 -4 22 -20 17 -18 -6 -20 -3 -14 19 7 29 2
31 -27 16 -10 -6 -19 -7 -19 -2 0 17 32 37 55 34 30 -4 52 23 35 43 -14 17
-46 20 -55 5 -8 -12 -25 -13 -25 -2 0 5 18 27 40 50 22 22 40 45 40 51 0 18
-7 12 -29 -24 -29 -49 -47 -44 -19 5 19 33 27 40 46 35 13 -3 22 -1 22 6 0 6
-9 13 -19 16 -19 5 -38 64 -26 83 3 5 -2 21 -10 34 -12 17 -15 35 -10 56 7 31
-2 39 -22 19 -9 -9 -10 -6 -6 11 4 13 0 25 -8 31 -20 13 -26 11 -48 -12 l-19
-21 -12 22 c-7 14 -8 25 -3 29 9 6 43 68 43 79 0 2 -11 2 -24 0 -19 -4 -25 1
-37 31 -7 20 -12 40 -11 44 1 5 -8 7 -20 5 -17 -2 -24 3 -26 20 -3 17 -10 22
-33 23 -42 2 -46 3 -56 13 -5 5 -2 6 7 2 8 -4 4 2 -10 13 -32 26 -40 26 -39
-1 0 -13 3 -17 6 -10 6 16 20 15 20 -2 0 -18 -15 -15 -61 12 -23 13 -37 29
-35 40 3 33 -1 42 -21 42 -13 0 -20 -7 -20 -20 0 -27 -11 -25 -55 10 -21 17
-46 30 -56 30 -10 0 -21 5 -24 10 -3 6 -9 9 -13 9 -4 -1 -17 -4 -30 -6z m93
-39 c11 -8 30 -21 42 -30 11 -8 32 -16 46 -18 28 -3 98 -56 73 -56 -8 0 -18 5
-21 10 -3 6 -14 10 -23 10 -15 0 -15 -2 -2 -10 12 -8 10 -10 -8 -10 -14 0 -21
4 -17 10 10 16 -14 40 -39 40 -13 0 -17 -3 -9 -8 23 -15 -10 -39 -54 -39 l-43
0 28 16 c69 39 67 38 52 56 -8 10 -33 26 -55 36 -22 11 -29 16 -15 13 14 -3
34 -12 45 -20z m-304 -7 c-6 -8 -7 -17 -3 -21 4 -4 0 -6 -8 -4 -8 2 -15 -4
-15 -12 0 -9 -24 -23 -65 -36 -36 -12 -66 -21 -68 -20 -5 6 24 23 65 39 22 9
53 28 67 42 26 26 47 35 27 12z m100 -14 c13 -15 12 -16 -11 -9 -14 5 -38 8
-55 7 -23 0 -26 2 -15 9 24 15 66 12 81 -7z m159 2 l-25 -14 33 -1 c20 0 31
-4 27 -10 -9 -15 -42 -12 -82 7 -31 14 -33 18 -17 24 10 4 35 8 54 8 l35 0
-25 -14z m160 5 c0 -5 -4 -10 -10 -10 -5 0 -10 5 -10 10 0 6 5 10 10 10 6 0
10 -4 10 -10z m-550 -35 c0 -8 -4 -15 -10 -15 -5 0 -10 7 -10 15 0 8 5 15 10
15 6 0 10 -7 10 -15z m210 10 c0 -2 -10 -9 -21 -16 -13 -6 -19 -7 -15 -1 3 6
-2 13 -11 15 -10 3 -3 5 15 6 17 0 32 -1 32 -4z m171 -25 c10 0 19 -4 19 -8 0
-12 -59 -2 -67 11 -4 7 0 8 11 4 10 -4 26 -7 37 -7z m-224 -6 c-3 -3 -12 -4
-19 -1 -8 3 -5 6 6 6 11 1 17 -2 13 -5z m-32 -24 c3 -5 2 -10 -4 -10 -5 0 -13
5 -16 10 -3 6 -2 10 4 10 5 0 13 -4 16 -10z m95 -6 c0 -2 -16 -4 -36 -4 -19 0
-33 4 -30 8 5 8 66 4 66 -4z m285 6 c3 -5 -1 -10 -10 -10 -9 0 -13 5 -10 10 3
6 8 10 10 10 2 0 7 -4 10 -10z m-452 -7 c-7 -2 -19 -2 -25 0 -7 3 -2 5 12 5
14 0 19 -2 13 -5z m-229 -104 c-8 -9 -19 -30 -24 -45 l-8 -29 -1 28 c-1 38 28
95 40 76 5 -8 2 -20 -7 -30z m981 11 c8 -16 15 -42 14 -57 l-1 -28 -9 31 c-5
17 -15 37 -23 43 -8 7 -12 19 -9 27 7 20 10 18 28 -16z m-974 -63 c-13 -13
-15 1 -4 30 7 17 8 17 11 -1 2 -10 -1 -23 -7 -29z m953 27 c3 -9 6 -21 6 -27
0 -16 -23 9 -26 28 -3 20 12 19 20 -1z m-1008 -39 c-1 -27 -10 -21 -21 12 -5
18 -3 22 8 17 8 -3 14 -16 13 -29z m1079 13 c-11 -35 -21 -41 -19 -10 2 33 1
32 15 32 6 0 8 -9 4 -22z m-765 -115 l0 -114 -50 2 c-27 2 -52 1 -55 -2 -2 -3
17 -6 42 -8 26 -1 50 -4 53 -7 2 -3 -20 -4 -50 -2 l-55 3 -3 123 c-2 77 1 121
7 118 5 -4 12 -3 14 1 3 5 26 7 51 5 l46 -4 0 -115z m110 7 l0 -120 -50 0 -51
0 3 113 3 112 40 6 c22 3 43 7 48 8 4 0 7 -53 7 -119z m298 -3 l3 -117 -43 -2
-43 -1 45 -7 c43 -7 43 -8 -15 -6 l-60 1 -5 121 c-4 92 -2 120 7 117 7 -3 14
-21 16 -41 3 -34 4 -34 5 9 l2 45 43 -1 42 -1 3 -117z m126 117 c13 -5 16 -26
16 -122 0 -106 -9 -135 -23 -77 -4 15 -5 13 -6 -7 -1 -27 -3 -28 -51 -28 l-51
0 3 113 3 112 45 6 c25 3 46 7 47 7 1 1 8 -1 17 -4z m-392 -121 c-2 -66 -7
-113 -13 -113 -6 0 -7 -4 -4 -10 4 -6 -15 -9 -52 -8 l-58 1 50 6 50 6 3 116
c2 83 6 116 15 116 9 0 11 -29 9 -114z m446 70 c14 -12 14 -13 -1 -13 -14 0
-17 -11 -17 -70 0 -60 3 -70 18 -71 15 -1 15 -2 0 -6 -9 -2 -19 -14 -21 -26
-2 -12 -4 37 -4 108 -1 72 1 121 4 110 3 -11 12 -26 21 -32z m-718 -10 c0 -16
-4 -23 -8 -17 -4 6 -14 14 -22 17 -12 4 -11 6 3 6 9 1 17 6 17 11 0 6 2 10 5
10 3 0 5 -12 5 -27z m310 2 c0 -2 -7 -5 -15 -9 -9 -3 -15 0 -15 9 0 9 6 12 15
9 8 -4 15 -7 15 -9z m100 1 c0 -10 -7 -12 -22 -8 -21 5 -21 6 -2 13 10 4 20 8
22 8 1 1 2 -5 2 -13z m-560 -3 c0 -5 -9 -21 -20 -38 -23 -34 -26 -50 -7 -39 6
5 -1 -8 -18 -28 -16 -20 -34 -37 -40 -37 -5 -1 -4 4 3 11 7 7 12 25 12 40 0
15 5 28 10 28 6 0 18 16 27 35 15 32 33 47 33 28z m1024 -28 c11 -19 23 -35
28 -35 4 0 8 -9 8 -21 0 -11 5 -29 10 -40 6 -10 8 -19 4 -19 -10 0 -49 54 -46
63 1 5 -6 25 -18 44 -22 38 -24 43 -12 43 4 0 16 -16 26 -35z m-1002 6 c-11
-7 -11 -9 2 -14 26 -10 18 -22 -14 -23 -17 -1 -30 1 -30 4 0 10 33 42 44 42 6
0 5 -4 -2 -9z m966 -7 c30 -21 28 -31 -8 -30 -28 1 -45 26 -17 26 8 0 7 4 -3
10 -8 5 -10 10 -5 10 6 0 21 -7 33 -16z m-1074 -8 c-3 -8 -14 -16 -23 -19 -14
-3 -17 0 -14 14 3 11 14 19 24 19 12 0 16 -5 13 -14z m1186 -1 c0 -8 -4 -15
-9 -15 -5 0 -11 7 -15 15 -3 9 0 15 9 15 8 0 15 -7 15 -15z m-1177 -37 c-6
-32 -19 -56 -26 -47 -2 2 -7 16 -11 32 -5 23 -3 27 14 27 11 0 20 5 20 10 0 6
2 10 5 10 2 0 2 -15 -2 -32z m-43 -27 c0 -10 -7 -26 -15 -37 -13 -17 -14 -15
-12 28 2 35 5 44 15 36 6 -6 12 -18 12 -27z m150 18 c0 -5 -7 -9 -15 -9 -15 0
-20 12 -9 23 8 8 24 -1 24 -14z m960 0 c0 -5 -7 -9 -15 -9 -15 0 -20 12 -9 23
8 8 24 -1 24 -14z m114 -7 c-8 -34 -10 -36 -23 -27 -20 12 -13 51 9 52 17 2
19 -2 14 -25z m33 -20 c2 -43 1 -45 -12 -28 -18 24 -19 48 -3 64 7 7 12 12 13
12 0 0 1 -21 2 -48z m-1112 2 c12 4 15 -5 15 -54 0 -34 -4 -60 -10 -60 -6 0
-8 11 -4 25 5 20 3 24 -10 19 -13 -5 -16 1 -16 30 0 40 -2 41 -33 25 -22 -12
-22 -12 -3 10 14 16 22 18 32 10 8 -6 21 -9 29 -5z m1009 -6 c11 -15 12 -24 5
-29 -8 -5 -8 -8 0 -13 6 -4 11 -12 11 -18 0 -6 -6 -6 -15 2 -9 7 -14 19 -11
25 5 13 -12 35 -26 35 -4 0 -8 -16 -8 -36 0 -29 -3 -35 -16 -30 -13 5 -15 1
-10 -20 5 -17 3 -25 -4 -22 -6 2 -11 7 -11 11 1 4 1 29 1 56 0 43 2 49 19 44
10 -3 22 0 25 6 11 17 23 13 40 -11z m-884 -33 c0 -23 -2 -24 -20 -13 -17 10
-18 14 -5 16 8 2 15 8 15 13 0 5 2 9 5 9 3 0 5 -11 5 -25z m410 -2 c0 -16 -4
-23 -8 -17 -4 6 -14 14 -22 17 -12 4 -11 6 3 6 9 1 17 6 17 11 0 6 2 10 5 10
3 0 5 -12 5 -27z m-665 -24 c-6 -19 -9 -20 -16 -6 -11 20 0 52 13 39 6 -6 7
-20 3 -33z m95 12 c0 -17 -5 -33 -11 -36 -16 -10 -24 4 -11 17 20 20 13 32 -8
13 -24 -22 -27 -9 -3 17 23 26 33 22 33 -11z m480 14 c0 -1 -9 -5 -20 -8 -12
-3 -20 0 -20 8 0 8 8 11 20 8 11 -3 20 -7 20 -8z m544 0 c-4 -8 -1 -22 6 -30
14 -17 8 -31 -9 -20 -14 8 -15 65 -1 65 5 0 7 -7 4 -15z m100 -1 c7 -19 -2
-37 -15 -29 -12 8 -12 45 0 45 5 0 12 -7 15 -16z m-1175 -70 c1 -5 -6 -19 -14
-30 -13 -18 -14 -18 -8 6 10 43 -8 14 -23 -37 l-14 -48 4 58 c3 32 13 71 22
85 l18 27 7 -25 c4 -14 7 -30 8 -36z m1161 -3 c5 -20 10 -52 9 -71 -1 -34 -1
-34 -14 13 -14 50 -33 82 -22 37 l6 -25 -19 25 c-12 16 -15 29 -9 35 5 5 9 18
9 28 0 31 28 2 40 -42z m45 -47 c-20 -45 -31 -32 -16 21 5 20 6 33 0 30 -13
-9 -11 12 4 35 11 19 12 19 20 -13 6 -25 4 -45 -8 -73z m-1275 59 c0 -8 -4
-12 -9 -8 -6 3 -5 -10 0 -30 14 -51 5 -66 -15 -26 -22 42 -15 111 10 91 8 -7
14 -19 14 -27z m945 27 c4 -6 -15 -9 -52 -8 l-58 1 50 7 c28 4 51 8 52 8 1 1
5 -2 8 -8z m-817 -62 c-21 -57 -48 -95 -48 -68 0 8 9 31 20 50 l21 35 -36 -39
c-36 -40 -43 -41 -24 -3 11 22 68 76 81 77 3 0 -3 -24 -14 -52z m432 42 c0 -6
-25 -9 -57 -8 l-58 1 55 7 c30 4 56 7 58 8 1 1 2 -2 2 -8z m230 -4 c8 -2 -11
-4 -42 -5 -32 0 -58 2 -58 7 0 7 64 6 100 -2z m351 -8 c28 -21 59 -65 59 -84
0 -4 -16 10 -35 32 l-36 39 21 -35 c24 -43 28 -72 6 -50 -15 15 -58 120 -50
120 3 0 19 -10 35 -22z m-818 5 c-7 -2 -21 -2 -30 0 -10 3 -4 5 12 5 17 0 24
-2 18 -5z m60 0 c-7 -2 -19 -2 -25 0 -7 3 -2 5 12 5 14 0 19 -2 13 -5z m47 -3
c0 -5 -4 -10 -10 -10 -5 0 -10 5 -10 10 0 6 5 10 10 10 6 0 10 -4 10 -10z
m410 0 c0 -5 -2 -10 -4 -10 -3 0 -8 5 -11 10 -3 6 -1 10 4 10 6 0 11 -4 11
-10z m108 3 c-15 -2 -42 -2 -60 0 -18 2 -6 4 27 4 33 0 48 -2 33 -4z m-770
-50 c6 -16 18 -52 27 -82 34 -110 107 -233 191 -322 19 -19 32 -38 28 -41 -3
-4 -16 5 -29 20 -28 32 -35 27 -37 -22 -1 -20 -6 -36 -11 -36 -5 0 -7 9 -4 20
3 13 0 20 -9 20 -8 0 -14 6 -14 14 0 8 -14 26 -31 39 -31 24 -31 25 -10 32 14
4 21 15 21 31 0 19 -5 24 -24 24 -19 0 -28 -8 -37 -35 -13 -35 -33 -46 -42
-22 -2 6 -8 9 -12 5 -15 -14 8 -28 48 -28 41 -1 41 -1 15 -13 -14 -7 -48 -38
-73 -69 -50 -61 -67 -68 -97 -41 -29 26 -22 45 46 112 49 49 69 62 85 58 12
-3 21 -1 21 4 0 5 -4 9 -10 9 -6 0 -10 27 -10 61 0 55 -2 60 -19 54 -14 -4
-21 0 -24 12 -3 10 -5 2 -6 -17 -1 -25 -4 -31 -10 -21 -7 11 -12 6 -19 -20
-10 -33 -10 -33 -11 -6 -1 32 22 83 41 90 7 2 9 8 4 13 -5 5 -15 -1 -23 -13
l-15 -23 -19 23 -18 22 -1 -23 c0 -13 4 -20 10 -17 6 4 10 -7 10 -24 0 -17 -4
-31 -10 -31 -5 0 -10 8 -10 18 0 10 -7 27 -15 40 -22 31 -5 60 37 64 37 3 51
34 24 54 -15 10 -15 13 -1 24 9 8 21 23 26 34 9 18 7 18 -10 -3 -22 -24 -28
-13 -11 20 15 26 26 24 38 -8z m932 18 c0 -5 3 -18 7 -28 6 -17 5 -17 -15 1
-26 22 -28 36 -7 36 8 0 15 -4 15 -9z m-1 -89 c-28 -19 -8 -52 31 -52 39 0 57
-31 35 -62 -8 -13 -15 -30 -15 -40 0 -10 -4 -18 -10 -18 -5 0 -10 14 -10 31 0
17 4 28 10 24 6 -3 10 4 10 17 l-1 23 -18 -22 -19 -23 -15 23 c-8 12 -18 19
-22 15 -4 -4 2 -16 14 -25 15 -13 24 -32 27 -63 4 -45 4 -45 -7 -11 -8 27 -13
31 -20 20 -6 -10 -9 -4 -10 21 -1 19 -3 27 -6 17 -3 -12 -10 -16 -24 -12 -17
6 -19 1 -19 -54 0 -49 -4 -62 -19 -70 -15 -9 -20 -7 -24 9 -6 24 -45 27 -54 4
-4 -11 2 -23 18 -35 l24 -18 -28 -21 c-30 -24 -35 -48 -12 -56 22 -9 18 -24
-5 -24 -11 0 -20 7 -20 16 0 11 -6 14 -20 9 -16 -5 -20 -2 -20 19 0 31 -15 34
-30 6 -6 -11 -15 -20 -21 -20 -6 0 12 26 39 58 28 31 68 86 91 121 41 65 101
206 101 239 0 33 13 33 41 0 26 -32 26 -33 8 -46z m-1149 57 c0 -6 10 -25 22
-41 13 -19 16 -29 8 -26 -8 2 -24 21 -37 41 -19 29 -20 37 -8 37 8 0 15 -5 15
-11z m90 -104 c5 -44 -1 -95 -10 -95 -5 0 -10 5 -10 12 0 6 -10 23 -22 37 -13
14 -16 20 -7 13 18 -14 30 -6 22 14 -3 8 -2 26 2 41 5 21 8 24 15 13 4 -8 9
-24 10 -35z m86 34 c10 -17 -13 -36 -27 -22 -12 12 -4 33 11 33 5 0 12 -5 16
-11z m472 -50 c-3 -32 -1 -49 6 -49 6 0 4 -6 -5 -13 -19 -15 -35 -57 -20 -57
5 0 12 10 14 23 2 12 5 -1 6 -30 2 -78 -2 -83 -69 -83 -37 0 -62 5 -69 14 -8
9 -11 52 -8 127 l3 114 2 -117 2 -118 43 2 42 1 -37 4 -38 4 0 117 0 117 66
-3 66 -4 -4 -49z m152 -58 l0 -119 -67 -4 c-38 -2 -69 -3 -71 -2 -2 1 -1 26 1
55 3 42 5 49 11 32 5 -13 13 -23 18 -23 6 0 7 8 3 18 -18 45 -36 115 -33 130
2 13 18 18 63 23 33 3 63 6 68 7 4 1 7 -52 7 -117z m380 99 c0 -11 -4 -20 -9
-20 -14 0 -23 18 -16 30 10 17 25 11 25 -10z m88 -38 c-2 -19 1 -26 12 -24 11
3 11 -1 -3 -16 -9 -10 -17 -24 -17 -31 0 -7 -4 -9 -10 -6 -5 3 -10 19 -10 36
0 16 -9 38 -20 49 -21 21 -19 40 3 40 8 0 8 -3 -1 -9 -10 -6 -10 -10 3 -21 13
-10 15 -9 15 7 0 11 3 23 7 27 11 11 25 -22 21 -52z m-453 -189 c-5 -21 -11
-23 -74 -23 -46 0 -71 -4 -74 -12 -2 -7 -8 -10 -12 -5 -18 16 32 36 93 37 l62
0 2 123 2 122 4 -110 c1 -60 0 -120 -3 -132z m50 187 c18 -6 18 -7 -2 -12 -21
-6 -34 15 -32 52 1 8 4 4 8 -9 3 -13 15 -27 26 -31z m-735 26 c0 -2 -7 -7 -16
-10 -8 -3 -12 -2 -9 4 6 10 25 14 25 6z m-120 -36 c0 -11 -7 -20 -15 -20 -15
0 -21 21 -8 33 12 13 23 7 23 -13z m1335 0 c0 -7 -6 -15 -12 -17 -8 -3 -13 4
-13 17 0 13 5 20 13 18 6 -3 12 -11 12 -18z m-865 0 c0 -5 -10 -10 -22 -9 -22
0 -22 1 -3 9 11 5 21 9 23 9 1 1 2 -3 2 -9z m-372 -117 c-5 -6 -7 -29 -3 -50
4 -28 3 -33 -4 -18 -12 24 -13 71 -4 105 l7 25 6 -25 c4 -14 3 -30 -2 -37z
m1131 -13 c0 -19 -5 -44 -10 -55 -6 -14 -7 -8 -3 21 3 25 1 45 -5 49 -6 3 -11
-1 -11 -10 0 -9 -9 -34 -21 -57 -28 -54 -12 -64 51 -31 75 39 88 27 35 -30
-25 -28 -49 -46 -55 -42 -8 5 -2 17 16 36 15 16 23 29 16 29 -6 0 -19 -11 -29
-24 l-18 -24 -27 25 c-24 22 -25 28 -15 57 5 17 21 45 34 62 12 17 23 39 24
50 1 35 18 -17 18 -56z m-1182 48 c6 -7 10 -20 10 -28 0 -8 3 -30 7 -47 6 -27
5 -32 -7 -27 -8 3 -17 18 -20 33 -3 16 -9 40 -13 55 -7 27 6 35 23 14z m180
-45 c0 -53 0 -55 -7 -18 l-6 40 -12 -28 c-7 -16 -12 -36 -12 -46 0 -9 -22 -39
-50 -66 l-49 -48 -41 44 c-22 24 -40 47 -40 52 0 12 52 -3 82 -24 24 -17 58
-17 58 0 0 3 -9 21 -20 39 -11 18 -20 40 -20 49 0 27 38 -13 45 -48 7 -33 25
-30 25 4 0 21 35 107 43 107 2 0 4 -26 4 -57z m878 26 c9 -17 14 -33 12 -36
-3 -2 -8 5 -12 16 -3 12 -11 21 -16 21 -5 0 -9 7 -9 15 0 23 8 18 25 -16z
m180 -1 c-11 -48 -22 -75 -35 -83 -9 -6 -10 2 -5 26 5 19 8 41 8 49 0 18 16
40 29 40 6 0 7 -14 3 -32z m-458 -20 c-3 -7 -5 -2 -5 12 0 14 2 19 5 13 2 -7
2 -19 0 -25z m260 -40 c-2 -13 -4 -5 -4 17 -1 22 1 32 4 23 2 -10 2 -28 0 -40z
m-617 8 c0 -10 -7 -12 -22 -8 -21 5 -21 6 -2 13 10 4 20 8 22 8 1 1 2 -5 2
-13z m394 5 c3 -5 -3 -11 -14 -14 -12 -3 -20 -14 -20 -26 0 -12 -4 -21 -9 -21
-5 0 -4 15 2 35 10 33 29 45 41 26z m268 -30 c2 -17 1 -28 -4 -25 -8 5 -12 54
-4 54 2 0 6 -13 8 -29z m-812 -6 c0 -8 -7 -15 -15 -15 -8 0 -15 7 -15 15 0 8
7 15 15 15 8 0 15 -7 15 -15z m700 0 c0 -8 -7 -15 -15 -15 -8 0 -15 7 -15 15
0 8 7 15 15 15 8 0 15 -7 15 -15z m-514 -28 c21 -4 21 -4 -3 -3 -17 1 -28 7
-29 16 0 8 1 10 3 3 2 -6 15 -14 29 -16z m653 -42 c66 -64 66 -64 51 -92 -26
-46 -52 -41 -105 22 -27 31 -57 61 -67 66 -10 6 2 -11 27 -37 30 -32 42 -51
35 -58 -10 -10 -96 71 -92 87 4 13 -21 2 -26 -11 -2 -7 3 -12 11 -12 23 0 127
-120 127 -146 0 -18 -12 -29 -47 -48 -27 -13 -83 -42 -125 -64 -187 -98 -413
-95 -606 9 -184 98 -183 96 -87 196 38 39 61 71 55 75 -5 5 -8 6 -7 3 2 -2
-17 -27 -42 -54 -54 -59 -83 -54 -34 6 38 48 78 69 99 53 20 -18 17 -37 -7
-43 -27 -7 -20 -31 11 -35 12 -2 43 -16 69 -32 76 -47 160 -70 254 -70 97 0
167 18 255 66 34 19 69 34 77 34 26 0 28 23 4 42 l-24 18 24 20 c14 13 38 20
62 20 31 0 39 4 38 18 0 10 -3 12 -6 5 -6 -17 -33 -17 -33 0 0 8 3 17 7 20 16
16 39 3 102 -58z m-436 38 c-7 -2 -19 -2 -25 0 -7 3 -2 5 12 5 14 0 19 -2 13
-5z m-284 -122 c-1 -14 -2 -13 -6 2 -7 28 -21 20 -15 -9 3 -18 1 -25 -6 -20
-6 4 -10 25 -9 47 2 39 2 40 20 18 9 -12 16 -29 16 -38z m461 14 c0 -25 -5
-45 -10 -45 -6 0 -8 12 -4 28 4 21 3 24 -5 12 -15 -22 -14 5 1 30 7 11 14 20
15 20 2 0 3 -20 3 -45z m-540 4 c0 -5 -11 -9 -25 -9 -28 0 -34 16 -7 23 20 4
32 -1 32 -14z m184 -61 c-3 -5 -15 -2 -25 8 -10 9 -19 12 -19 6 0 -6 5 -12 12
-14 6 -2 9 -11 6 -18 -3 -10 -10 -4 -22 18 -9 17 -13 32 -9 32 4 0 2 5 -5 12
-28 28 -9 26 28 -3 22 -18 37 -36 34 -41z m306 26 c0 -19 -4 -34 -8 -34 -5 0
-7 16 -6 35 l3 35 -30 -35 c-17 -19 -36 -32 -42 -28 -6 4 5 20 28 39 22 18 43
30 47 28 4 -3 8 -21 8 -40z m81 13 c-8 -8 -11 -7 -11 4 0 20 13 34 18 19 3 -7
-1 -17 -7 -23z m-456 3 c3 -5 2 -10 -3 -10 -6 0 -8 -10 -5 -22 4 -19 3 -20 -6
-8 -6 8 -11 23 -11 33 0 19 15 23 25 7z m337 -40 c-9 -16 -19 -25 -21 -19 -3
9 26 49 35 49 2 0 -5 -13 -14 -30z m-74 -25 c-8 -17 -19 -25 -36 -25 -24 0
-24 1 9 24 19 13 35 25 36 25 2 1 -3 -10 -9 -24z m-127 -23 c-19 -6 -41 6 -41
23 0 14 3 13 26 -2 15 -9 21 -19 15 -21z m-451 18 c0 -5 -4 -10 -10 -10 -5 0
-10 5 -10 10 0 6 5 10 10 10 6 0 10 -4 10 -10z m400 0 c0 -5 -4 -10 -10 -10
-5 0 -10 5 -10 10 0 6 5 10 10 10 6 0 10 -4 10 -10z m210 0 c0 -5 -4 -10 -10
-10 -5 0 -10 5 -10 10 0 6 5 10 10 10 6 0 10 -4 10 -10z m400 6 c0 -3 -4 -8
-10 -11 -5 -3 -10 -1 -10 4 0 6 5 11 10 11 6 0 10 -2 10 -4z"/>
<path d="M1259 1693 c-13 -15 -12 -15 9 -4 23 12 28 21 13 21 -5 0 -15 -7 -22
-17z"/>
<path d="M801 1464 c0 -11 3 -14 6 -6 3 7 2 16 -1 19 -3 4 -6 -2 -5 -13z"/>
<path d="M830 1457 c0 -2 7 -24 16 -50 15 -45 34 -63 34 -32 0 8 -4 15 -10 15
-5 0 -12 16 -16 35 -3 19 -10 35 -15 35 -5 0 -9 -1 -9 -3z"/>
<path d="M891 1444 c0 -11 3 -14 6 -6 3 7 2 16 -1 19 -3 4 -6 -2 -5 -13z"/>
<path d="M802 1340 c0 -19 2 -27 5 -17 2 9 2 25 0 35 -3 9 -5 1 -5 -18z"/>
<path d="M940 1405 c0 -52 1 -55 24 -55 14 0 27 4 30 9 4 5 -3 7 -14 4 -18 -5
-20 0 -20 42 0 38 3 46 16 41 8 -3 12 -2 9 4 -3 6 -15 10 -26 10 -16 0 -19 -7
-19 -55z"/>
<path d="M1252 1405 c-1 -32 2 -55 8 -55 5 0 10 10 10 23 l0 22 20 -25 c11
-14 20 -20 20 -14 0 5 -5 15 -12 22 -9 9 -9 17 1 36 16 29 8 46 -22 46 -20 0
-23 -5 -25 -55z m43 25 c0 -7 -6 -15 -12 -17 -8 -3 -13 4 -13 17 0 13 5 20 13
18 6 -3 12 -11 12 -18z"/>
<path d="M1223 1345 c0 -22 2 -30 4 -17 2 12 2 30 0 40 -3 9 -5 -1 -4 -23z"/>
<path d="M1365 1405 c0 -30 5 -55 10 -55 6 0 10 25 10 55 0 30 -4 55 -10 55
-5 0 -10 -25 -10 -55z"/>
<path d="M1010 1050 c0 -5 7 -7 16 -3 15 5 16 0 12 -45 -3 -34 -1 -52 6 -52 7
0 10 18 8 49 -3 41 -1 50 15 54 10 3 1 5 -19 6 -21 0 -38 -3 -38 -9z"/>
<path d="M1187 1053 c-13 -13 -7 -38 13 -51 21 -13 27 -37 10 -45 -6 -3 -5 -4
2 -3 22 4 21 44 -1 58 -28 17 -28 42 0 33 15 -5 19 -4 15 4 -8 12 -29 15 -39
4z"/>
<path d="M530 833 c1 -11 50 -46 50 -35 0 10 -33 42 -43 42 -4 0 -7 -3 -7 -7z"/>
<path d="M771 640 c-33 -54 -36 -60 -23 -60 5 0 15 11 22 25 15 29 19 30 45
11 18 -13 18 -15 2 -39 -9 -13 -13 -28 -9 -31 9 -9 73 95 65 107 -3 5 -12 -2
-20 -17 -13 -25 -15 -25 -38 -10 -23 15 -23 17 -8 40 8 13 11 24 5 24 -6 0
-24 -23 -41 -50z"/>
<path d="M1379 653 l-27 -16 35 -53 c21 -31 40 -51 47 -47 49 28 61 78 26 113
-24 24 -46 25 -81 3z m81 -35 c11 -21 12 -32 4 -45 -18 -29 -32 -26 -58 14
-35 51 -34 65 6 61 23 -2 37 -11 48 -30z"/>
<path d="M891 570 c-23 -27 -38 -50 -32 -50 5 0 14 7 19 17 14 23 42 9 42 -22
0 -14 5 -25 10 -25 6 0 10 28 10 65 0 36 -2 65 -3 65 -2 0 -23 -22 -46 -50z
m32 0 c-3 -11 -9 -17 -15 -14 -5 3 -4 12 3 20 16 19 18 18 12 -6z"/>
<path d="M1276 602 c-9 -15 28 -119 41 -115 10 4 10 9 1 23 -17 27 -4 35 24
16 12 -9 29 -16 37 -16 9 0 0 11 -19 24 -19 13 -39 22 -44 19 -9 -6 -26 15
-26 35 0 6 7 12 15 12 8 0 15 -7 15 -15 0 -8 5 -15 11 -15 6 0 8 7 5 16 -3 9
-6 18 -6 20 0 8 -49 4 -54 -4z"/>
<path d="M988 540 c-8 -33 -11 -60 -7 -60 4 0 11 9 14 20 9 28 21 25 34 -10 5
-16 15 -30 21 -30 6 0 5 11 -5 30 -14 27 -14 32 2 56 16 25 16 27 -2 40 -32
24 -42 16 -57 -46z m47 20 c0 -13 -6 -25 -12 -27 -9 -3 -13 6 -13 27 0 21 4
30 13 28 6 -3 12 -15 12 -28z"/>
<path d="M1093 524 c12 -35 24 -61 28 -56 10 10 -22 110 -37 116 -8 3 -4 -18
9 -60z"/>
<path d="M1196 563 c-3 -15 -8 -46 -10 -68 -5 -35 -4 -34 7 10 8 30 16 45 21
37 4 -6 5 -16 2 -21 -3 -5 1 -11 9 -15 8 -3 15 -12 15 -21 0 -8 6 -15 14 -15
10 0 6 16 -17 58 -16 31 -31 58 -33 60 -1 2 -5 -9 -8 -25z"/>
<path d="M1142 543 c-15 -50 -9 -52 11 -3 8 22 12 40 8 40 -4 0 -13 -17 -19
-37z"/>
</g>
</svg>
